<?xml version="1.0" encoding="UTF-8" standalone="no"?>
<svg
   xmlns:dc="http://purl.org/dc/elements/1.1/"
   xmlns:cc="http://creativecommons.org/ns#"
   xmlns:rdf="http://www.w3.org/1999/02/22-rdf-syntax-ns#"
   xmlns:svg="http://www.w3.org/2000/svg"
   xmlns="http://www.w3.org/2000/svg"
   xmlns:sodipodi="http://sodipodi.sourceforge.net/DTD/sodipodi-0.dtd"
   xmlns:inkscape="http://www.inkscape.org/namespaces/inkscape"
   enable-background="new 0 0 64 64"
   height="64px"
   id="Layer_1"
   version="1.1"
   viewBox="0 0 64 64"
   width="64px"
   xml:space="preserve"
   sodipodi:docname="index-circuit.png.svg"
   inkscape:version="0.92.0 unknown"><metadata
     id="metadata4574"><rdf:RDF><cc:Work
         rdf:about=""><dc:format>image/svg+xml</dc:format><dc:type
           rdf:resource="http://purl.org/dc/dcmitype/StillImage" /><dc:title></dc:title></cc:Work></rdf:RDF></metadata><defs
     id="defs4572"><inkscape:perspective
       sodipodi:type="inkscape:persp3d"
       inkscape:vp_x="0 : 32 : 1"
       inkscape:vp_y="0 : 1000 : 0"
       inkscape:vp_z="64 : 32 : 1"
       inkscape:persp3d-origin="32 : 21.333333 : 1"
       id="perspective4584" /></defs><sodipodi:namedview
     pagecolor="#ffffff"
     bordercolor="#666666"
     borderopacity="1"
     objecttolerance="10"
     gridtolerance="10"
     guidetolerance="10"
     inkscape:pageopacity="0"
     inkscape:pageshadow="2"
     inkscape:window-width="1865"
     inkscape:window-height="1056"
     id="namedview4570"
     showgrid="false"
     showguides="true"
     inkscape:zoom="5.6568543"
     inkscape:cx="26.961687"
     inkscape:cy="3.8668199"
     inkscape:window-x="55"
     inkscape:window-y="24"
     inkscape:window-maximized="1"
     inkscape:current-layer="Layer_1" /><g
     id="g4567"
     transform="matrix(0.85881114,0,0,0.85881114,3.2678214,3.3159038)"><path
       d="m 44,26 h 2 v -1 h 2.651 l 3,-2 h 3.497 c 0.297,0.732 1.013,1.25 1.852,1.25 1.104,0 2,-0.896 2,-2 0,-1.104 -0.896,-2 -2,-2 -1.019,0 -1.851,0.765 -1.975,1.75 h -3.677 l -3,2 H 46 v -1 h -2 v -3 h -3 v -2 h -1 v -1.833 l 3,-4 V 9.429 C 43.861,9.206 44.5,8.43 44.5,7.5 c 0,-1.104 -0.896,-2 -2,-2 -1.104,0 -2,0.896 -2,2 0,0.93 0.639,1.706 1.5,1.929 v 2.404 l -3,4 V 18 h -1 v 2 h -2 v -2 h -1 v -3.845 l 2,-2.917 V 9.429 C 37.861,9.206 38.5,8.43 38.5,7.5 c 0,-1.104 -0.896,-2 -2,-2 -1.104,0 -2,0.896 -2,2 0,0.93 0.639,1.706 1.5,1.929 v 1.5 l -2,2.917 V 18 h -1 v 2 h -2 v -2 h -1 v -6.571 c 0.861,-0.223 1.5,-0.999 1.5,-1.929 0,-1.104 -0.896,-2 -2,-2 -1.104,0 -2,0.896 -2,2 0,0.93 0.639,1.706 1.5,1.929 V 18 h -1 v 2 h -2 v -2 h -1 v -3.207 l -2,-2 V 9.429 C 23.861,9.206 24.5,8.43 24.5,7.5 c 0,-1.104 -0.896,-2 -2,-2 -1.104,0 -2,0.896 -2,2 0,0.93 0.639,1.706 1.5,1.929 v 3.778 l 2,2 V 18 h -1 v 2 h -3 v 3 h -2 v 1 h -1.599 l -3,-2 H 9.725 C 9.601,21.015 8.769,20.25 7.75,20.25 c -1.104,0 -2,0.896 -2,2 0,1.104 0.896,2 2,2 0.838,0 1.554,-0.518 1.852,-1.25 h 3.497 l 3,2 H 18 v 1 h 2 v 4.407409 h -2 v 1 h -5.275 c -0.124,-0.985 -0.956,-1.75 -1.975,-1.75 -1.104,0 -2,0.896 -2,2 0,1.104 0.896,2 2,2 0.838,0 1.554,-0.518 1.852,-1.25 H 18 v 1 h 2 V 38 h -2 v 1 h -2.901 l -3,2 H 8.725 C 8.601,40.015 7.769,39.25 6.75,39.25 c -1.104,0 -2,0.896 -2,2 0,1.104 0.896,2 2,2 0.838,0 1.554,-0.518 1.852,-1.25 h 3.8 l 3,-2 H 18 v 1 h 2 v 3 h 3 v 2 h 1 v 2.333 l -3,4 v 2.737 c -0.861,0.223 -1.5,0.999 -1.5,1.929 0,1.104 0.896,2 2,2 1.104,0 2,-0.896 2,-2 0,-0.93 -0.639,-1.706 -1.5,-1.929 v -2.404 l 3,-4 V 46 h 1 v -2 h 2 v 2 h 1 v 4.345 l -2,2.917 v 1.809 c -0.861,0.223 -1.5,0.999 -1.5,1.929 0,1.104 0.896,2 2,2 1.104,0 2,-0.896 2,-2 0,-0.93 -0.639,-1.706 -1.5,-1.929 v -1.5 l 2,-2.917 V 46 h 1 v -2 h 2 v 2 h 1 v 7.071 c -0.861,0.223 -1.5,0.999 -1.5,1.929 0,1.104 0.896,2 2,2 1.104,0 2,-0.896 2,-2 0,-0.93 -0.639,-1.706 -1.5,-1.929 V 46 h 1 v -2 h 2 v 2 h 1 v 3.707 l 2,2 v 3.364 c -0.861,0.223 -1.5,0.999 -1.5,1.929 0,1.104 0.896,2 2,2 1.104,0 2,-0.896 2,-2 0,-0.93 -0.639,-1.706 -1.5,-1.929 v -3.778 l -2,-2 V 46 h 1 v -2 h 3 v -3 h 2 v -1 h 3.293 l 2,2 h 3.855 c 0.297,0.732 1.013,1.25 1.852,1.25 1.104,0 2,-0.896 2,-2 0,-1.104 -0.896,-2 -2,-2 -1.019,0 -1.851,0.765 -1.975,1.75 h -3.318 l -2,-2 H 46 v -1 h -2 v -4.450143 h 2 v -1 h 5.148 c 0.297,0.732 1.013,1.25 1.852,1.25 1.104,0 2,-0.896 2,-2 0,-1.104 -0.896,-2 -2,-2 -1.019,0 -1.851,0.765 -1.975,1.75 H 46 v -1 h -2 z m 13,-4.75 c 0.552,0 1,0.448 1,1 0,0.552 -0.448,1 -1,1 -0.552,0 -1,-0.448 -1,-1 0,-0.552 0.448,-1 1,-1 z M 44,24 h 1 v 1 H 44 Z M 41.5,7.5 c 0,-0.552 0.448,-1 1,-1 0.552,0 1,0.448 1,1 0,0.552 -0.448,1 -1,1 -0.552,0 -1,-0.448 -1,-1 z m -6,0 c 0,-0.552 0.448,-1 1,-1 0.552,0 1,0.448 1,1 0,0.552 -0.448,1 -1,1 -0.552,0 -1,-0.448 -1,-1 z m -7,2 c 0,-0.552 0.448,-1 1,-1 0.552,0 1,0.448 1,1 0,0.552 -0.448,1 -1,1 -0.552,0 -1,-0.448 -1,-1 z m -7,-2 c 0,-0.552 0.448,-1 1,-1 0.552,0 1,0.448 1,1 0,0.552 -0.448,1 -1,1 -0.552,0 -1,-0.448 -1,-1 z M 7.75,23.25 c -0.552,0 -1,-0.448 -1,-1 0,-0.552 0.448,-1 1,-1 0.552,0 1,0.448 1,1 0,0.552 -0.448,1 -1,1 z m 3,9.407409 c -0.552,0 -1,-0.448 -1,-1 0,-0.552 0.448,-1 1,-1 0.552,0 1,0.448 1,1 0,0.552 -0.448,1 -1,1 z M 6.75,42.25 c -0.552,0 -1,-0.448 -1,-1 0,-0.552 0.448,-1 1,-1 0.552,0 1,0.448 1,1 0,0.552 -0.448,1 -1,1 z M 20,40 h -1 v -1 h 1 z m 0,-7.592591 h -1 v -1 h 1 z M 20,25 h -1 v -1 h 1 z m 2.5,32 c 0,0.552 -0.448,1 -1,1 -0.552,0 -1,-0.448 -1,-1 0,-0.552 0.448,-1 1,-1 0.552,0 1,0.448 1,1 z m 6,0 c 0,0.552 -0.448,1 -1,1 -0.552,0 -1,-0.448 -1,-1 0,-0.552 0.448,-1 1,-1 0.552,0 1,0.448 1,1 z m 7,-2 c 0,0.552 -0.448,1 -1,1 -0.552,0 -1,-0.448 -1,-1 0,-0.552 0.448,-1 1,-1 0.552,0 1,0.448 1,1 z m 7,2 c 0,0.552 -0.448,1 -1,1 -0.552,0 -1,-0.448 -1,-1 0,-0.552 0.448,-1 1,-1 0.552,0 1,0.448 1,1 z M 39,19 h 1 v 1 h -1 z m -5,0 h 1 v 1 h -1 z m -5,0 h 1 v 1 h -1 z m -5,0 h 1 v 1 h -1 z m 1,26 h -1 v -1 h 1 z m 5,0 h -1 v -1 h 1 z m 5,0 h -1 v -1 h 1 z m 5,0 h -1 v -1 h 1 z m 3,-2 H 21 V 21 h 22 z m 14,-2.75 c 0.552,0 1,0.448 1,1 0,0.552 -0.448,1 -1,1 -0.552,0 -1,-0.448 -1,-1 0,-0.552 0.448,-1 1,-1 z M 45,39 v 1 h -1 v -1 z m 8,-8.200143 c 0.552,0 1,0.448 1,1 0,0.552 -0.448,1 -1,1 -0.552,0 -1,-0.448 -1,-1 0,-0.552 0.448,-1 1,-1 z m -8,0.75 v 1 h -1 v -1 z"
       id="path4559"
       inkscape:connector-curvature="0"
       style="fill:#37474f"
       sodipodi:nodetypes="ccccccssscccccccccccccsssccccccccccccsssccccccccccsssccccccccccssscccccccccccccsssccccccccccsssccccccccccssscccccccccccccsssccccccccccccsssccccccccccsssccccccccccssscccccccccccccsssccccccccccssscccccssssscccccssssssssssssssssssssssssssssssssssscccccccccccccccsssssssssssssssssssscccccccccccccccccccccccccccccccccccccccccccccssssscccccsssssccccc" /><path
       d="M 41,23 H 23 V 41 H 41 Z M 40,40 H 24 V 24 h 16 z"
       id="path4561"
       inkscape:connector-curvature="0"
       style="fill:#37474f" /><rect
       height="1"
       transform="matrix(-0.7071,0.7071,-0.7071,-0.7071,78.7548,28.3787)"
       width="9.8990002"
       x="28.549999"
       y="30"
       id="rect4563"
       style="fill:#37474f" /><rect
       height="1"
       transform="matrix(-0.7071,0.7071,-0.7071,-0.7071,72.1335,34.1213)"
       width="8.4849997"
       x="24.757"
       y="31.5"
       id="rect4565"
       style="fill:#37474f" /></g><path
     style="fill:#000000;fill-opacity:0"
     id="path4576"
     d="m -2.5727545,-2.527983 c 1.3617336,1.4971434 2.83882694,2.88306366 4.3046061,4.2764503 4.8358886,4.5444656 9.7249544,9.0318797 14.5682024,13.5686177 4.893938,4.598127 9.810544,9.17406 14.798401,13.670494 3.284107,2.960544 4.962261,4.422067 8.295606,7.35907 1.42999,1.23485 2.857012,2.473144 4.289968,3.704549 3.507808,3.01442 4.74164,4.066107 8.249331,6.982357 3.240539,2.694143 6.512705,5.349627 9.783401,8.00694 2.48273,2.044431 5.077789,3.957987 7.495911,6.08096 0.298619,0.262171 0.589709,0.532797 0.884564,0.799195 1.501514,1.418956 2.890157,2.951072 4.370561,4.391265 0.287428,0.27962 0.581296,0.552543 0.871944,0.828815 1.159259,1.123555 2.400252,2.157964 3.715851,3.092785 0.03607,0.02359 0.257383,0.177821 0.339903,0.207472 0.01159,0.0042 0.0468,-0.01387 0.03616,-0.0077 -0.429231,0.250328 -0.850856,0.515173 -1.293496,0.740947 -0.02152,0.01098 -0.02337,-0.0424 -0.03719,-0.06221 -0.02538,-0.03637 -0.05351,-0.07075 -0.08027,-0.106118 -0.398116,-0.567108 -0.382686,-1.281324 -0.424265,-1.945852 -0.02467,-0.394218 -0.04342,-0.788784 -0.06513,-1.183176 -0.15571,-3.476183 -0.428397,-6.945442 -0.648895,-10.417697 -0.230007,-3.622018 -0.255971,-4.336746 -0.445993,-8.008295 -0.345764,-5.788151 -0.606022,-11.580934 -0.95186,-17.369028 0,0 0.926028,-0.476565 0.926028,-0.476565 v 0 c 0.04,1.852092 0.08068,3.948224 0.141794,5.782629 0.130151,3.906643 0.332311,7.810567 0.562603,11.712441 0.08146,1.361284 0.151043,2.723332 0.244375,4.083854 0.323019,4.708727 0.845642,9.399461 1.322915,14.094114 0.04298,0.382276 0.08261,0.764944 0.128952,1.146826 0.03025,0.249291 0.06309,0.498314 0.100834,0.746581 0.05895,0.387771 0.129265,0.762075 0.383139,1.072776 0.08841,0.105959 0.168883,0.199128 0.159334,0.206436 -1.246988,0.954355 -0.945637,1.094665 -1.612852,0.548535 -1.234756,-1.021447 -2.46473,-2.049331 -3.601207,-3.18176 C 72.463263,66.108278 70.778734,64.306989 68.997417,62.60165 66.370054,60.186197 63.675428,57.845066 60.990204,55.494507 57.828276,52.754866 54.637743,50.049612 51.458759,47.329803 48.586149,44.872115 46.153365,42.77865 43.278481,40.303849 41.845932,39.07066 40.414204,37.836518 38.982065,36.602853 35.454402,33.52549 34.110526,32.371265 30.639192,29.272165 25.617396,24.788861 20.66635,20.226624 15.687566,15.695853 10.74192,11.209145 5.7549636,6.768582 0.73447729,2.3657394 -0.8023026,1.0109989 -2.3327405,-0.35063072 -3.8311474,-1.7477075 c 0,0 1.2583929,-0.7802755 1.2583929,-0.7802755 z"
     inkscape:connector-curvature="0" /><path
     style="fill:#000000;fill-opacity:0;stroke-width:0.8588112"
     id="path4578"
     d="m 69.897877,26.761008 c 0.072,0.581703 0.201593,1.156125 0.343252,1.724536 0.182389,0.739871 0.332771,1.486438 0.527068,2.22335 0.15101,0.559978 0.286992,1.12399 0.403564,1.692133 0.04045,0.195658 0.07322,0.396431 -0.02311,0.583509 -0.240942,0.46795 -1.762391,1.014614 -1.84099,1.052813 -2.264951,0.382966 -4.55553,0.589384 -6.833826,0.8753 -0.698262,0.08763 -1.395203,0.185493 -2.092804,0.27824 -0.720673,0.123644 -1.441345,0.247288 -2.162017,0.370932 0,0 0.716028,-0.539131 0.716028,-0.539131 v 0 c 0.724844,-0.125471 1.44969,-0.250942 2.174536,-0.376414 3.702099,-0.520909 0.562131,-0.08809 4.05448,-0.545947 1.447513,-0.189771 2.902679,-0.365382 4.337652,-0.638358 0.257023,-0.04889 0.511297,-0.111262 0.766945,-0.166894 -0.209602,0.155064 -0.431256,0.29504 -0.62881,0.46519 -0.02949,0.0254 0.227504,-0.0744 0.361053,-0.24601 0.123215,-0.158334 0.09976,-0.338941 0.06377,-0.522563 -0.100904,-0.570624 -0.236402,-1.13425 -0.378854,-1.695781 -0.193321,-0.737762 -0.333247,-1.486933 -0.527484,-2.224515 -0.146409,-0.573537 -0.265324,-1.152393 -0.4043,-1.727571 0,0 1.143848,-0.582819 1.143848,-0.582819 z"
     inkscape:connector-curvature="0" /><path
     style="fill:#000000;fill-opacity:0;stroke-width:0.8588112"
     id="path4580"
     d="m 47.269012,48.634756 c 0.05378,-0.0025 0.108005,-0.01529 0.161311,-0.0079 0.627741,0.08839 1.208784,0.733504 1.613911,1.166297 0.364415,0.453648 0.659824,0.955984 0.811869,1.521763 0.07416,0.275998 0.146386,0.652832 0.0056,0.931567 -0.07907,0.156502 -0.229812,0.264885 -0.344718,0.397326 -0.556634,0.294745 -1.087368,0.644718 -1.669903,0.884238 -0.423031,0.173937 -1.805768,0.293641 -2.176537,0.313134 -1.073628,0.05645 -2.008813,0.0356 -3.080428,-0.122383 -0.592306,-0.08732 -1.173689,-0.237202 -1.760532,-0.355802 -0.587626,-0.197549 -1.18939,-0.357184 -1.762878,-0.592644 -1.889069,-0.775603 -4.066989,-2.171656 -5.147233,-3.960736 -0.20313,-0.336419 -0.310249,-0.722152 -0.465374,-1.083229 -0.01141,-0.328068 -0.106777,-0.664054 -0.03423,-0.984203 0.169657,-0.748662 0.751387,-1.220207 1.396543,-1.554988 0.738928,-0.383443 1.499379,-0.739681 2.294584,-0.986035 1.051436,-0.325737 2.517928,-0.264191 3.583025,-0.279681 1.885574,0.08823 3.865213,0.287886 5.481958,1.36134 0.597355,0.396618 0.702695,0.590786 1.136677,1.109008 0.313093,0.490345 0.81126,1.24586 0.385905,1.827606 -0.04941,0.06756 -0.121052,0.115599 -0.181578,0.173397 -0.733628,0.509419 -1.131544,0.727885 -1.880525,0.844346 -0.191683,0.0298 -0.38516,0.04249 -0.574919,0.08304 0,0 1.023957,-0.767407 1.023957,-0.767407 v 0 c 0.276455,-0.02085 0.556035,-0.05502 0.824839,-0.12472 0.502708,-0.130355 0.639937,-0.312693 -0.555613,0.431354 0.167873,-0.111402 0.253156,-0.133866 0.34051,-0.329116 0.237479,-0.530808 -0.134561,-1.097748 -0.384681,-1.538781 -0.402166,-0.514773 -0.496062,-0.704888 -1.061865,-1.105436 -1.048368,-0.742172 -2.310545,-1.097437 -3.569064,-1.267432 -0.581641,-0.07856 -1.170378,-0.09017 -1.755569,-0.135246 -4.193067,0.119594 0.318016,-0.09796 -3.626999,0.350861 -0.156073,0.01776 -0.324186,-0.107298 -0.468956,-0.04634 -0.609077,0.256462 -1.22404,0.776957 -1.411168,1.445054 -0.08669,0.309536 -0.01095,0.642802 -0.01647,0.964204 0.138113,0.360267 0.225227,0.744493 0.414341,1.080804 0.480023,0.853649 1.234873,1.603228 1.995244,2.199411 0.902065,0.707276 1.989778,1.324982 3.049836,1.754566 0.573425,0.232377 1.176214,0.384422 1.764321,0.576633 0.59222,0.110284 1.179294,0.253128 1.77666,0.330853 1.072641,0.139563 2.055957,0.144914 3.128798,0.06295 0.418735,-0.03198 0.836854,-0.08139 1.250267,-0.155222 0.331731,-0.05925 0.645755,-0.275241 0.981221,-0.243324 0.155179,0.01476 -0.237594,0.201848 -0.356391,0.302772 0.120002,-0.110329 0.272606,-0.19338 0.360009,-0.330979 0.163801,-0.257872 0.110152,-0.61391 0.04529,-0.882723 -0.133894,-0.55493 -0.430445,-1.038934 -0.788666,-1.475696 -0.377984,-0.382067 -0.822967,-0.859323 -1.363191,-1.008259 -0.182235,-0.05024 -0.247873,-0.02865 -0.416689,-0.0081 0,0 1.027525,-0.766242 1.027525,-0.766242 z"
     inkscape:connector-curvature="0" /><path
     style="fill:#000000;fill-opacity:0;stroke-width:0.8588112"
     id="path4582"
     d="m 26.4612,53.289802 c -0.08912,-1.464445 -0.0508,-2.936097 -0.04483,-4.402774 0.03767,-2.118309 0.135703,-4.243929 0.492831,-6.336094 0.237802,-1.39312 0.346128,-1.65716 0.716158,-2.993332 0.378766,-1.121622 0.814096,-2.237524 1.480338,-3.224559 0.253212,-0.375134 0.674342,-0.899149 1.066089,-1.159352 0.510926,-0.33936 1.06002,-0.617411 1.590032,-0.926118 0.765972,-0.303525 1.579118,-0.444551 2.401612,-0.43942 0.399459,0.0024 0.547151,0.02884 0.934913,0.07234 0.333466,0.05077 0.662863,0.1234 0.992785,0.192616 0.198623,0.04167 0.360794,0.08283 0.563387,0.07931 0.407187,-0.152314 0.735355,-0.281664 -0.868078,0.49752 -0.04399,0.02138 0.07213,-0.06782 0.09758,-0.109566 0.135341,-0.221884 0.140658,-0.518852 0.169479,-0.766327 0.131627,-1.239997 -0.02476,-2.474579 -0.21544,-3.698688 -0.189493,-0.985513 -0.377498,-1.979607 -0.710526,-2.929162 -0.204133,-0.582031 -0.256827,-0.655546 -0.517567,-1.201835 -0.515451,-0.946889 -1.276632,-1.542868 -2.20566,-2.045165 -0.07737,-0.03486 -0.373728,-0.176557 -0.477406,-0.195558 -0.05453,-0.01 -0.110755,0.0049 -0.166132,0.0073 0.323929,-0.170411 0.626762,-0.389052 0.971786,-0.511233 0.07596,-0.0269 -0.09409,0.133489 -0.120268,0.209692 -0.04278,0.124461 -0.05624,0.257133 -0.08436,0.3857 -0.172372,1.236805 0.03628,2.48265 0.222627,3.705184 0.289589,1.66425 0.424991,3.348299 0.546653,5.031328 0,0 -1.036561,0.53578 -1.036561,0.53578 v 0 c -0.0749,-1.684557 -0.216657,-3.367466 -0.530544,-5.026395 -0.208881,-1.222865 -0.430458,-2.463946 -0.302508,-3.708631 0.01679,-0.132877 0.02603,-0.26693 0.05038,-0.398633 0.0171,-0.09251 -0.0022,-0.216869 0.07369,-0.272423 1.061634,-0.776893 1.063934,-0.86547 1.88479,-0.433118 0.892681,0.536918 1.711209,1.191745 2.200714,2.134487 0.253331,0.544716 0.316158,0.643836 0.51505,1.22175 0.329809,0.95832 0.505431,1.960837 0.702472,2.952089 0.207231,1.218416 0.391595,2.447059 0.30388,3.687034 -0.0132,0.201632 -0.01923,0.410875 -0.05804,0.610496 -0.125179,0.64386 -0.828608,1.014639 -1.475112,1.059113 -0.514041,-0.053 -1.004016,-0.255362 -1.519584,-0.308318 -0.381398,-0.0426 -0.517267,-0.06783 -0.910707,-0.06824 -0.806883,-8.25e-4 -1.602772,0.145128 -2.344669,0.467999 0.132633,-0.08273 0.491504,-0.373384 0.397898,-0.24819 -0.149305,0.199689 -0.397741,0.30359 -0.572378,0.48155 -1.052248,1.072272 -1.613368,2.520131 -2.124651,3.899628 -0.38384,1.323049 -0.505285,1.611877 -0.748222,2.993384 -0.364977,2.075509 -0.449132,4.187296 -0.435841,6.290425 0.03307,1.428063 0.02762,2.868567 0.220747,4.285963 0,0 -1.126809,0.602443 -1.126809,0.602443 z"
     inkscape:connector-curvature="0" /><g
     sodipodi:type="inkscape:box3d"
     id="g4586"
     style="fill:#000000;fill-opacity:0"
     inkscape:perspectiveID="#perspective4584"
     inkscape:corner0="5.6217605 : 0.175437 : 0 : 1"
     inkscape:corner7="1.2703178 : 0.040873639 : 0.25 : 1"><path
       sodipodi:type="inkscape:box3dside"
       id="path4588"
       style="fill:#353564;fill-rule:evenodd;stroke:none;stroke-width:1px;stroke-linecap:butt;stroke-linejoin:round;stroke-opacity:1"
       inkscape:box3dsidetype="6"
       d="M 4.8325517,7.1168389 V 27.438226 l 2.1525579,0.165961 V 8.0221077 Z"
       points="4.8325517,27.438226 6.9851096,27.604187 6.9851096,8.0221077 4.8325517,7.1168389 " /><path
       sodipodi:type="inkscape:box3dside"
       id="path4598"
       style="fill:#e9e9ff;fill-rule:evenodd;stroke:none;stroke-width:1px;stroke-linecap:butt;stroke-linejoin:round;stroke-opacity:1"
       inkscape:box3dsidetype="11"
       d="M 6.9851096,8.0221077 19.045217,-33.376808 V 20.014618 L 6.9851096,27.604187 Z"
       points="19.045217,-33.376808 19.045217,20.014618 6.9851096,27.604187 6.9851096,8.0221077 " /><path
       sodipodi:type="inkscape:box3dside"
       id="path4590"
       style="fill:#4d4d9f;fill-rule:evenodd;stroke:none;stroke-width:1px;stroke-linecap:butt;stroke-linejoin:round;stroke-opacity:1"
       inkscape:box3dsidetype="5"
       d="M 4.8325517,7.1168389 14.094943,-40.575889 19.045217,-33.376808 6.9851096,8.0221077 Z"
       points="14.094943,-40.575889 19.045217,-33.376808 6.9851096,8.0221077 4.8325517,7.1168389 " /><path
       sodipodi:type="inkscape:box3dside"
       id="path4596"
       style="fill:#afafde;fill-rule:evenodd;stroke:none;stroke-width:1px;stroke-linecap:butt;stroke-linejoin:round;stroke-opacity:1"
       inkscape:box3dsidetype="13"
       d="m 4.8325517,27.438226 9.2623913,-8.743399 4.950274,1.319791 -12.0601074,7.589569 z"
       points="14.094943,18.694827 19.045217,20.014618 6.9851096,27.604187 4.8325517,27.438226 " /><path
       sodipodi:type="inkscape:box3dside"
       id="path4594"
       style="fill:#d7d7ff;fill-rule:evenodd;stroke:none;stroke-width:1px;stroke-linecap:butt;stroke-linejoin:round;stroke-opacity:1"
       inkscape:box3dsidetype="14"
       d="m 14.094943,-40.575889 v 59.270716 l 4.950274,1.319791 v -53.391426 z"
       points="14.094943,18.694827 19.045217,20.014618 19.045217,-33.376808 14.094943,-40.575889 " /><path
       sodipodi:type="inkscape:box3dside"
       id="path4592"
       style="fill:#8686bf;fill-rule:evenodd;stroke:none;stroke-width:1px;stroke-linecap:butt;stroke-linejoin:round;stroke-opacity:1"
       inkscape:box3dsidetype="3"
       d="M 4.8325517,7.1168389 14.094943,-40.575889 v 59.270716 l -9.2623913,8.743399 z"
       points="14.094943,-40.575889 14.094943,18.694827 4.8325517,27.438226 4.8325517,7.1168389 " /></g><g
     id="g5523"
     transform="matrix(0.85881114,0,0,0.85881114,3.2678214,3.3159038)"><circle
       id="circle4832-3"
       style="fill:#37474f;fill-opacity:1;stroke-width:0.12912177"
       r="6.4560885"
       cy="22.5165"
       cx="4.1483498" /><g
       id="g4847"
       transform="matrix(0.11669479,0,0,0.11669479,-3.3490723,15.05731)"><g
         id="g4836"><g
           id="g4834"><circle
             id="circle4832"
             style="fill:#f0db4f"
             r="50"
             cy="64"
             cx="64" /></g></g><g
         id="Layer_1_1_"><g
           id="g4844"><g
             id="g4842"><path
               id="path4838"
               style="fill:#323330"
               d="m 48.4,44.6 h 8.7 V 69.1 C 57.1,80.1 51.8,84 43.4,84 41.3,84 38.7,83.7 37,83.1 L 38,76 c 1.2,0.4 2.8,0.7 4.5,0.7 3.7,0 6,-1.7 6,-7.6 z"
               inkscape:connector-curvature="0" /><path
               id="path4840"
               style="fill:#323330"
               d="m 64.8,74.4 c 2.3,1.2 6,2.4 9.7,2.4 4,0 6.1,-1.7 6.1,-4.3 0,-2.4 -1.8,-3.8 -6.5,-5.4 C 67.7,64.8 63.4,61.2 63.4,55.5 63.4,49 69,44 78.1,44 c 4.4,0 7.6,0.9 9.9,2 l -2,7 c -1.5,-0.7 -4.3,-1.8 -8,-1.8 -3.8,0 -5.6,1.8 -5.6,3.7 0,2.5 2.1,3.6 7.2,5.5 6.8,2.5 10,6.1 10,11.6 0,6.5 -4.9,12 -15.6,12 -4.4,0 -8.8,-1.2 -11,-2.4 z"
               inkscape:connector-curvature="0" /></g></g></g></g></g><ellipse
     style="fill:#000000;fill-opacity:0;stroke-width:0.8588112"
     id="path5452"
     cx="6.7405033"
     cy="22.581352"
     rx="4.9841099"
     ry="4.9661169" /><ellipse
     style="fill:#000000;fill-opacity:0;stroke-width:0.8588112"
     id="path5454"
     cx="4.7252674"
     cy="21.82564"
     rx="2.9328878"
     ry="3.4546897" /><path
     style="fill:#000000;fill-opacity:0;stroke-width:0.8588112"
     id="path5470"
     sodipodi:type="arc"
     sodipodi:cx="9.7453651"
     sodipodi:cy="17.039455"
     sodipodi:rx="3.4546897"
     sodipodi:ry="2.0872087"
     sodipodi:start="0"
     sodipodi:end="1.0422039"
     d="m 13.200055,17.039455 a 3.4546897,2.0872087 0 0 1 -1.712426,1.802342 L 9.7453651,17.039455 Z" /><path
     style="fill:#a46900;fill-opacity:0;stroke-width:0.8588112"
     id="path5472"
     sodipodi:type="arc"
     sodipodi:cx="16.2409"
     sodipodi:cy="19.378567"
     sodipodi:rx="3.4726832"
     sodipodi:ry="3.4187038"
     sodipodi:start="0"
     sodipodi:end="1.0422042"
     d="m 19.713583,19.378567 a 3.4726832,3.4187038 0 0 1 -1.721346,2.952112 L 16.2409,19.378567 Z" /><style
     id="style6405"
     type="text/css">
	.st0{fill:#46483E;}
	.st1{fill:#81CF08;}
</style><g
     id="g6493"
     transform="matrix(0.67573721,0,0,0.67573721,10.875224,20.056686)"><path
       id="path6407-3"
       d="m 67.032485,18.810717 c -5.040614,0 -9.131547,4.090933 -9.131547,9.131547 0,5.040613 4.090933,9.131546 9.131547,9.131546 5.040613,0 9.131546,-4.090933 9.131546,-9.131546 0,-5.040614 -4.090933,-9.131547 -9.131546,-9.131547 z"
       class="st0"
       inkscape:connector-curvature="0"
       style="fill:#37474f;fill-opacity:1;stroke-width:0.18263093" /><g
       transform="matrix(0.1631855,0,0,0.1631855,56.588613,17.498392)"
       id="g6427"><path
         style="fill:#46483e"
         inkscape:connector-curvature="0"
         class="st0"
         d="m 64,14 c -27.6,0 -50,22.4 -50,50 0,27.6 22.4,50 50,50 27.6,0 50,-22.4 50,-50 C 114,36.4 91.6,14 64,14 Z"
         id="path6407" /><g
         id="g6413"><path
           style="fill:#81cf08"
           inkscape:connector-curvature="0"
           class="st1"
           d="m 64,95.9 c -0.9,0 -1.7,-0.2 -2.5,-0.7 l -7.8,-4.6 c -1.2,-0.7 -0.6,-0.9 -0.2,-1 1.6,-0.6 1.9,-0.7 3.5,-1.6 0.2,-0.1 0.4,-0.1 0.6,0.1 l 6,3.6 c 0.2,0.1 0.5,0.1 0.7,0 L 87.7,78.2 c 0.2,-0.1 0.4,-0.4 0.4,-0.6 v -27 C 88.1,50.3 88,50.1 87.7,50 L 64.4,36.4 c -0.2,-0.1 -0.5,-0.1 -0.7,0 L 40.3,49.8 c -0.2,0.1 -0.4,0.4 -0.4,0.6 v 27 c 0,0.2 0.1,0.5 0.4,0.6 l 6.4,3.7 c 3.5,1.7 5.6,-0.3 5.6,-2.4 V 52.8 c 0,-0.4 0.3,-0.7 0.7,-0.7 h 3 c 0.4,0 0.7,0.3 0.7,0.7 v 26.6 c 0,4.7 -2.5,7.3 -6.9,7.3 -1.4,0 -2.4,0 -5.4,-1.5 l -6.1,-3.5 c -1.5,-0.9 -2.5,-2.5 -2.5,-4.3 v -27 c 0,-1.7 0.9,-3.4 2.5,-4.3 L 61.7,32.6 c 1.5,-0.8 3.5,-0.8 4.9,0 L 90,46.1 c 1.5,0.9 2.5,2.5 2.5,4.3 v 27 c 0,1.7 -0.9,3.4 -2.5,4.3 L 66.5,95.3 c -0.8,0.4 -1.6,0.6 -2.5,0.6 z"
           id="path6409" /><path
           style="fill:#81cf08"
           inkscape:connector-curvature="0"
           class="st1"
           d="m 71.3,77.3 c -10.2,0 -12.4,-4.7 -12.4,-8.6 0,-0.4 0.3,-0.7 0.7,-0.7 h 3 c 0.3,0 0.6,0.2 0.7,0.6 0.4,3.1 1.8,4.6 8,4.6 4.9,0 7,-1.1 7,-3.7 0,-1.5 -0.6,-2.6 -8.3,-3.4 -6.4,-0.6 -10.4,-2 -10.4,-7.2 0,-4.7 4,-7.5 10.7,-7.5 7.5,0 11.2,2.6 11.7,8.2 0,0.2 -0.1,0.4 -0.2,0.5 -0.1,0.1 -0.3,0.2 -0.5,0.2 h -3 c -0.3,0 -0.6,-0.2 -0.7,-0.5 -0.7,-3.2 -2.5,-4.3 -7.3,-4.3 -5.4,0 -6,1.9 -6,3.3 0,1.7 0.7,2.2 8,3.2 7.2,0.9 10.6,2.3 10.6,7.3 0,5.1 -4.2,8 -11.6,8 z"
           id="path6411" /></g></g></g></svg>