<?xml version="1.0" encoding="UTF-8" standalone="no"?>
<!-- Generator: Adobe Illustrator 19.1.0, SVG Export Plug-In . SVG Version: 6.00 Build 0)  -->

<svg
   xmlns:dc="http://purl.org/dc/elements/1.1/"
   xmlns:cc="http://creativecommons.org/ns#"
   xmlns:rdf="http://www.w3.org/1999/02/22-rdf-syntax-ns#"
   xmlns:svg="http://www.w3.org/2000/svg"
   xmlns="http://www.w3.org/2000/svg"
   xmlns:sodipodi="http://sodipodi.sourceforge.net/DTD/sodipodi-0.dtd"
   xmlns:inkscape="http://www.inkscape.org/namespaces/inkscape"
   version="1.1"
   id="Layer_1"
   x="0px"
   y="0px"
   viewBox="0 0 250 250"
   style="enable-background:new 0 0 250 250;"
   xml:space="preserve"
   sodipodi:docname="angular.svg"
   inkscape:version="0.92.0 unknown"><metadata
     id="metadata4728"><rdf:RDF><cc:Work
         rdf:about=""><dc:format>image/svg+xml</dc:format><dc:type
           rdf:resource="http://purl.org/dc/dcmitype/StillImage" /><dc:title></dc:title></cc:Work></rdf:RDF></metadata><defs
     id="defs4726" /><sodipodi:namedview
     pagecolor="#ffffff"
     bordercolor="#666666"
     borderopacity="1"
     objecttolerance="10"
     gridtolerance="10"
     guidetolerance="10"
     inkscape:pageopacity="0"
     inkscape:pageshadow="2"
     inkscape:window-width="1865"
     inkscape:window-height="1056"
     id="namedview4724"
     showgrid="false"
     inkscape:zoom="0.944"
     inkscape:cx="15.148454"
     inkscape:cy="50.07895"
     inkscape:window-x="55"
     inkscape:window-y="24"
     inkscape:window-maximized="1"
     inkscape:current-layer="layer2" /><style
     type="text/css"
     id="style4713">
	.st0{fill:#DD0031;}
	.st1{fill:#C3002F;}
	.st2{fill:#FFFFFF;}
</style><g
     inkscape:groupmode="layer"
     id="layer2"
     inkscape:label="Layer 1"><g
       id="g5333"><path
         d="M 250.41071,125.52966 A 125.41073,124.49308 0 0 1 125.36332,250.02222 125.41073,124.49308 0 0 1 -0.40864594,126.25103 125.41073,124.49308 0 0 1 123.90995,1.0412854 125.41073,124.49308 0 0 1 250.40228,124.08694"
         sodipodi:open="true"
         sodipodi:end="6.2715963"
         sodipodi:start="0"
         sodipodi:ry="124.49308"
         sodipodi:rx="125.41073"
         sodipodi:cy="125.52966"
         sodipodi:cx="124.99998"
         sodipodi:type="arc"
         id="path4587-3-6"
         style="enable-background:new 0 0 250 250;fill:#37474f;fill-opacity:1;stroke:none;stroke-width:2.55134988;stroke-opacity:0" /><path
         d="M 235.53364,125.52966 A 110.004,109.19909 0 0 1 125.84835,234.72829 110.004,109.19909 0 0 1 15.527489,126.16241 110.004,109.19909 0 0 1 124.57352,16.334699 110.004,109.19909 0 0 1 235.52625,124.26418"
         sodipodi:open="true"
         sodipodi:end="6.2715963"
         sodipodi:start="0"
         sodipodi:ry="109.19909"
         sodipodi:rx="110.004"
         sodipodi:cy="125.52966"
         sodipodi:cx="125.52964"
         sodipodi:type="arc"
         id="path4587-3"
         style="enable-background:new 0 0 250 250;fill:#e3ea23;fill-opacity:1;stroke:none;stroke-width:2.23791623;stroke-opacity:0" /><g
         transform="matrix(0.67473921,0,0,0.67473921,42.776243,42.283903)"
         id="g4721"
         style="enable-background:new 0 0 250 250"><polygon
           style="fill:#dd0031"
           id="polygon4715"
           points="125,230 125,230 203.9,186.3 218.1,63.2 125,30 31.9,63.2 46.1,186.3 125,230 "
           class="st0" /><polygon
           style="fill:#c3002f"
           id="polygon4717"
           points="125,230 203.9,186.3 218.1,63.2 125,30 125,52.2 125,52.1 125,153.4 125,230 "
           class="st1" /><path
           style="fill:#ffffff"
           inkscape:connector-curvature="0"
           id="path4719"
           d="M 125,52.1 66.8,182.6 v 0 h 21.7 v 0 l 11.7,-29.2 h 49.4 l 11.7,29.2 v 0 H 183 v 0 z m 17,83.3 h -34 l 17,-40.9 z"
           class="st2" /></g></g></g></svg>