<?xml version="1.0" encoding="UTF-8" standalone="no"?>
<!-- Created with Inkscape (http://www.inkscape.org/) -->

<svg
   xmlns:dc="http://purl.org/dc/elements/1.1/"
   xmlns:cc="http://creativecommons.org/ns#"
   xmlns:rdf="http://www.w3.org/1999/02/22-rdf-syntax-ns#"
   xmlns:svg="http://www.w3.org/2000/svg"
   xmlns="http://www.w3.org/2000/svg"
   xmlns:sodipodi="http://sodipodi.sourceforge.net/DTD/sodipodi-0.dtd"
   xmlns:inkscape="http://www.inkscape.org/namespaces/inkscape"
   version="1.1"
   id="svg4552"
   width="100"
   height="100"
   viewBox="0 0 99.999999 100"
   sodipodi:docname="backbone.svg"
   inkscape:version="0.92.0 unknown">
  <metadata
     id="metadata4558">
    <rdf:RDF>
      <cc:Work
         rdf:about="">
        <dc:format>image/svg+xml</dc:format>
        <dc:type
           rdf:resource="http://purl.org/dc/dcmitype/StillImage" />
        <dc:title />
      </cc:Work>
    </rdf:RDF>
  </metadata>
  <defs
     id="defs4556" />
  <sodipodi:namedview
     pagecolor="#ffffff"
     bordercolor="#666666"
     borderopacity="1"
     objecttolerance="10"
     gridtolerance="10"
     guidetolerance="10"
     inkscape:pageopacity="0"
     inkscape:pageshadow="2"
     inkscape:window-width="1865"
     inkscape:window-height="1056"
     id="namedview4554"
     showgrid="false"
     fit-margin-top="0"
     fit-margin-left="0"
     fit-margin-right="0"
     fit-margin-bottom="0"
     inkscape:zoom="4.0837579"
     inkscape:cx="18.292733"
     inkscape:cy="69.568493"
     inkscape:window-x="55"
     inkscape:window-y="24"
     inkscape:window-maximized="1"
     inkscape:current-layer="layer1" />
  <g
     inkscape:groupmode="layer"
     id="layer1"
     inkscape:label="Layer 1">
    <path
       style="fill:#37474f;fill-opacity:1;stroke:none;stroke-width:1.02124321;stroke-opacity:0"
       id="path4587-3-6"
       sodipodi:type="arc"
       sodipodi:cx="50.321301"
       sodipodi:cy="50.249866"
       sodipodi:rx="50.19886"
       sodipodi:ry="49.831551"
       sodipodi:start="0"
       sodipodi:end="6.2715963"
       sodipodi:open="true"
       d="M 100.52016,50.249866 A 50.19886,49.831551 0 0 1 50.466739,100.08121 50.19886,49.831551 0 0 1 0.12328308,50.538614 50.19886,49.831551 0 0 1 49.88499,0.42019818 50.19886,49.831551 0 0 1 100.51679,49.672381" />
    <path
       style="fill:#e4e4e5;fill-opacity:1;stroke:none;stroke-width:0.94061846;stroke-opacity:0"
       id="path4587-3"
       sodipodi:type="arc"
       sodipodi:cx="50.321301"
       sodipodi:cy="50.249866"
       sodipodi:rx="46.235779"
       sodipodi:ry="45.897465"
       sodipodi:start="0"
       sodipodi:end="6.2715963"
       sodipodi:open="true"
       d="M 96.557079,50.249866 A 46.235779,45.897465 0 0 1 50.455257,96.147139 46.235779,45.897465 0 0 1 4.0862979,50.515818 46.235779,45.897465 0 0 1 49.919435,4.3541354 46.235779,45.897465 0 0 1 96.553974,49.717972" />
    <path
       style="fill:#000000;fill-opacity:0;stroke:none;stroke-width:0.84559941;stroke-opacity:0"
       id="path4587"
       sodipodi:type="arc"
       sodipodi:cx="50.321301"
       sodipodi:cy="50.249866"
       sodipodi:rx="41.565147"
       sodipodi:ry="41.261013"
       sodipodi:start="0"
       sodipodi:end="6.2715963"
       sodipodi:open="true"
       d="M 91.886448,50.249866 A 41.565147,41.261013 0 0 1 50.441725,91.510706 41.565147,41.261013 0 0 1 8.7568509,50.488952 41.565147,41.261013 0 0 1 49.960031,8.990412 41.565147,41.261013 0 0 1 91.883657,49.771703" />
    <path
       style="fill:#0071b5;fill-opacity:1;fill-rule:evenodd;stroke:none;stroke-width:0.37386209px;stroke-linecap:butt;stroke-linejoin:miter;stroke-opacity:1"
       d="M 50.856906,35.555696 74.659528,21.640317 74.842624,54.597795 50.673809,67.780783 50.307615,59.175218 67.152822,49.654281 66.96954,35.738872 51.2231,44.71055 Z"
       id="path4585"
       inkscape:connector-curvature="0"
       sodipodi:nodetypes="ccccccccc" />
    <path
       style="fill:none;fill-rule:evenodd;stroke:none;stroke-width:0.37386209px;stroke-linecap:butt;stroke-linejoin:miter;stroke-opacity:1"
       d="m 66.96954,35.738872 c 0,0 -7.781569,4.531581 -15.654745,9.063234 -3.936587,2.265827 -7.896109,4.531421 -10.917211,6.230792 -3.021101,1.69937 -5.104276,2.832443 -5.287373,2.832443 -0.09155,0 -0.162528,0.217534 -0.2176,0.598033 -0.05508,0.380499 -0.09401,0.924218 -0.119752,1.576501 -0.0515,1.304567 -0.05137,3.044113 -0.02848,4.783538 0.04578,3.478846 0.183281,6.957337 0.183281,6.957337 L 67.152822,49.654281 Z"
       id="path4579"
       inkscape:connector-curvature="0" />
    <path
       style="fill:none;fill-rule:evenodd;stroke:#000000;stroke-width:0.37386209px;stroke-linecap:butt;stroke-linejoin:miter;stroke-opacity:1"
       d="M 34.377821,35.738872 V 50.020111 L 66.96954,68.147314 67.152822,54.04862 Z"
       id="path4573"
       inkscape:connector-curvature="0" />
    <path
       style="fill:#002a41;fill-opacity:1;fill-rule:evenodd;stroke:none;stroke-width:0.37386209px;stroke-linecap:butt;stroke-linejoin:miter;stroke-opacity:1"
       d="M 26.688091,21.878225 V 54.231901 L 75.025828,81.879442 74.842551,49.837561 Z M 34.377821,35.738872 67.152822,54.04862 66.96954,68.147314 34.377821,50.020111 Z"
       id="path4566"
       inkscape:connector-curvature="0" />
    <path
       style="fill:#0071b5;fill-opacity:1;fill-rule:evenodd;stroke:none;stroke-width:0.37386209px;stroke-linecap:butt;stroke-linejoin:miter;stroke-opacity:1"
       d="M 50.856906,35.555696 51.2231,44.71055 34.561265,54.231598 34.92766,67.78075 50.307615,59.175218 50.673809,67.780783 26.688091,81.696161 26.596542,49.928816 Z"
       id="path4583"
       inkscape:connector-curvature="0"
       sodipodi:nodetypes="ccccccccc" />
  </g>
</svg>
