<?xml version="1.0" encoding="UTF-8" standalone="no"?>
<svg
   xmlns:dc="http://purl.org/dc/elements/1.1/"
   xmlns:cc="http://creativecommons.org/ns#"
   xmlns:rdf="http://www.w3.org/1999/02/22-rdf-syntax-ns#"
   xmlns:svg="http://www.w3.org/2000/svg"
   xmlns="http://www.w3.org/2000/svg"
   xmlns:sodipodi="http://sodipodi.sourceforge.net/DTD/sodipodi-0.dtd"
   xmlns:inkscape="http://www.inkscape.org/namespaces/inkscape"
   enable-background="new 0 0 32 32"
   height="32px"
   id="Layer_1"
   version="1.0"
   viewBox="0 0 32 32"
   width="32px"
   xml:space="preserve"
   sodipodi:docname="css3.svg"
   inkscape:version="0.92.0 unknown"><metadata
     id="metadata4629"><rdf:RDF><cc:Work
         rdf:about=""><dc:format>image/svg+xml</dc:format><dc:type
           rdf:resource="http://purl.org/dc/dcmitype/StillImage" /><dc:title /></cc:Work></rdf:RDF></metadata><defs
     id="defs4627" /><sodipodi:namedview
     pagecolor="#ffffff"
     bordercolor="#666666"
     borderopacity="1"
     objecttolerance="10"
     gridtolerance="10"
     guidetolerance="10"
     inkscape:pageopacity="0"
     inkscape:pageshadow="2"
     inkscape:window-width="1865"
     inkscape:window-height="1056"
     id="namedview4625"
     showgrid="false"
     inkscape:zoom="19.865281"
     inkscape:cx="3.5437494"
     inkscape:cy="16.641363"
     inkscape:window-x="55"
     inkscape:window-y="24"
     inkscape:window-maximized="1"
     inkscape:current-layer="Layer_1" /><path
     style="fill:#008fbc;fill-opacity:1;stroke:#474b6e;stroke-width:1.04696476;stroke-miterlimit:4;stroke-dasharray:none;stroke-opacity:1"
     id="path4631"
     sodipodi:type="arc"
     sodipodi:cx="16.030106"
     sodipodi:cy="16.042511"
     sodipodi:rx="15.417769"
     sodipodi:ry="15.417769"
     sodipodi:start="0"
     sodipodi:end="6.2715963"
     sodipodi:open="true"
     d="M 31.447875,16.042511 A 15.417769,15.417769 0 0 1 16.074775,31.460216 15.417769,15.417769 0 0 1 0.61259499,16.131849 15.417769,15.417769 0 0 1 15.8961,0.62532393 15.417769,15.417769 0 0 1 31.44684,15.863838" /><g
     id="g4610"
     transform="matrix(0.59012533,0,0,0.59012533,6.9611173,7.413759)"><polygon
       points="4.625,28.889 2,0 30.002,0 27.377,28.889 16.001,32 "
       id="polygon4604"
       style="fill:#1f62ae" /><polygon
       points="16,2 16,29.75 25.232,27.008 27.688,2 "
       id="polygon4606"
       style="fill:#347dc6" /><polygon
       points="9.262,23.987 16,25.99 22.728,23.986 23.719,12.99 16.026,12.99 24,10 24.363,6 7.607,6 8,10 16,10 8.25,12.99 8.619,17 19.502,17 19.158,21 16,21.99 12.861,20.984 12.533,19 8.803,19 "
       id="polygon4608"
       style="fill:#ffffff" /></g><g
     id="g4612" /><g
     id="g4614" /><g
     id="g4616" /><g
     id="g4618" /><g
     id="g4620" /><g
     id="g4622" /></svg>