<?xml version="1.0" encoding="UTF-8" standalone="no"?>
<svg
   xmlns:dc="http://purl.org/dc/elements/1.1/"
   xmlns:cc="http://creativecommons.org/ns#"
   xmlns:rdf="http://www.w3.org/1999/02/22-rdf-syntax-ns#"
   xmlns:svg="http://www.w3.org/2000/svg"
   xmlns="http://www.w3.org/2000/svg"
   xmlns:sodipodi="http://sodipodi.sourceforge.net/DTD/sodipodi-0.dtd"
   xmlns:inkscape="http://www.inkscape.org/namespaces/inkscape"
   width="335.23438"
   height="335.23438"
   viewBox="0 0 335.23438 335.23438"
   version="1.1"
   id="svg5072"
   sodipodi:docname="grunt.svg"
   inkscape:version="0.92.0 unknown">
  <metadata
     id="metadata5078">
    <rdf:RDF>
      <cc:Work
         rdf:about="">
        <dc:format>image/svg+xml</dc:format>
        <dc:type
           rdf:resource="http://purl.org/dc/dcmitype/StillImage" />
        <dc:title />
      </cc:Work>
    </rdf:RDF>
  </metadata>
  <defs
     id="defs5076" />
  <sodipodi:namedview
     pagecolor="#ffffff"
     bordercolor="#666666"
     borderopacity="1"
     objecttolerance="10"
     gridtolerance="10"
     guidetolerance="10"
     inkscape:pageopacity="0"
     inkscape:pageshadow="2"
     inkscape:window-width="1865"
     inkscape:window-height="1056"
     id="namedview5074"
     showgrid="false"
     fit-margin-top="0"
     fit-margin-left="0"
     fit-margin-right="0"
     fit-margin-bottom="0"
     inkscape:zoom="0.99631156"
     inkscape:cx="31.407381"
     inkscape:cy="143.1957"
     inkscape:window-x="55"
     inkscape:window-y="24"
     inkscape:window-maximized="1"
     inkscape:current-layer="svg5072" />
  <circle
     style="fill:#37474f;fill-opacity:1;stroke:#6a6e7c;stroke-width:0.95306516;stroke-miterlimit:4;stroke-dasharray:none;stroke-opacity:1"
     id="path5623"
     cx="167.61719"
     cy="167.61719"
     r="167.14066" />
  <circle
     style="fill:#ffffff;fill-opacity:1;stroke:none;stroke-width:0.87316698;stroke-miterlimit:4;stroke-dasharray:none;stroke-opacity:1"
     id="path5623-3"
     cx="167.61826"
     cy="169.62354"
     r="153.12877" />
  <path
     d="m 107.03839,119.01263 c 0,0 3.31384,12.78054 3.78634,17.04168 0.47365,4.25998 -8.51997,13.72726 -8.51997,18.4609 0,4.73479 1.89057,13.25534 12.3063,17.51648 10.41574,4.26057 11.83439,15.14764 11.83439,21.77647 0,6.62709 -3.78633,19.40706 -3.78633,19.40706 0,0 -2.36596,31.71624 10.41458,37.39661 12.77938,5.67978 9.94093,5.67978 12.77938,5.67978 2.83614,0 23.6653,8.52576 35.9745,5.21019 12.30919,-3.3098 15.61898,-7.09901 15.61898,-7.09901 0,0 12.30919,0.9473 16.09264,-9.94093 3.78922,-10.88246 6.15171,-33.60624 4.73075,-44.02082 -1.42096,-10.41459 -3.31557,-24.13896 5.20441,-28.87549 8.51997,-4.73075 17.51359,-10.41458 16.09263,-15.14533 -1.42096,-4.73075 -8.99362,-11.36189 -8.99362,-11.36189 0,0 -1.89461,-11.82976 -0.47943,-14.67168 1.42096,-2.83614 9.94093,-9.94093 5.2044,-15.14534 -4.73075,-5.2044 -13.2565,-5.2044 -13.2565,-5.2044 l -10.88245,0.94153 c 0,0 -18.45456,-16.572642 -42.59929,-15.625337 -24.1274,0.947305 -39.27851,15.618987 -39.27851,15.618987 0,0 -8.04632,-2.84076 -15.14707,0 -7.10479,2.84191 -8.51997,0 -7.09901,8.04632 z"
     id="path4978"
     inkscape:connector-curvature="0"
     style="fill:#fba919;stroke-width:0.57762522" />
  <path
     d="m 150.29271,189.49273 c 0,0 -9.37486,14.33376 -16.25033,24.50575 -1.06399,1.57345 6.87604,1.68262 6.87604,1.68262 l 9.37487,-26.18837 z m 4.4633,-29.71709 c 0,0 -2.82574,7.04934 -4.37377,10.78657 -1.68089,4.06302 -8.08676,6.08413 -8.08676,6.08413 0,0 3.32134,-3.48308 3.32134,-12.30688 0,-3.6968 4.7787,-5.16975 4.7787,-5.16975 l 4.36107,0.61229 z"
     id="path4980"
     inkscape:connector-curvature="0"
     style="fill:#e78724;stroke-width:0.57762522" />
  <path
     d="m 151.90139,163.76126 c 0,0 -5.78954,6.89106 -16.53914,3.03253 -10.75192,-3.85853 -11.85403,-17.64414 -11.85403,-21.50383 0,-3.8597 20.39999,3.85969 23.157,5.514 2.75701,1.65432 7.9926,8.26987 5.23617,12.9573 z M 111.29434,90.119818 c 0,0 9.9236,-1.931578 16.53972,3.306904 6.61843,5.237328 8.54539,9.373708 8.54539,9.373708 l -11.15106,8.83939 c 0,0 -5.38809,-2.4988 -7.04298,-9.66713 -1.65316,-7.167176 -0.55047,-10.474658 -6.89107,-11.852872 z"
     id="path4982"
     inkscape:connector-curvature="0"
     style="fill:#e78724;stroke-width:0.57762522" />
  <path
     d="m 149.00749,143.85456 c -4.27328,-6.06507 -11.31452,-8.71059 -16.93598,-9.14958 -9.58684,-0.74918 -14.13795,2.63974 -14.13795,2.63974 0,0 15.69985,0.66427 20.22497,6.60803 8.42409,11.06153 20.71364,11.96031 22.67872,9.53082 -2.27237,0.11321 -4.77233,-1.01257 -7.4479,-3.54257 -1.67164,-1.58269 -3.02675,-4.16122 -4.38244,-6.08644 z m -26.50376,21.44549 c 0,0 -17.41886,-5.98824 -14.10907,-12.05157 3.30806,-6.06622 0.67583,-9.37081 0.67583,-9.37081 0,0 -9.727216,7.26074 -7.2492,14.97897 1.52377,4.73653 4.07918,8.16762 18.11143,14.741 6.73049,12.49981 1.38977,35.00409 1.70977,35.10806 0.53315,0.17328 9.44995,-4.40728 8.84113,-25.46173 -0.18484,-6.4694 -0.69892,-15.28974 -7.977,-17.95259 z m 22.8266,-64.39366 c -7.30407,3.71067 -17.31027,8.8781 -17.31027,8.8781 l 3.93824,1.9697 c -0.37545,0.6094 -0.55741,0.97272 -0.55741,0.97272 l 4.03761,1.838 c 0,0 9.86584,7.14812 15.91357,11.74312 -2.01591,-6.20657 -7.93657,-15.95804 -7.93657,-15.95804 0,0 -1.68089,-4.48064 1.90616,-9.44417 z m 24.26372,151.25694 c -22.4494,0 -30.05384,-11.39654 -30.05384,-11.39654 l 3.5085,8.54307 c 1.32622,3.6968 15.47342,15.19732 26.51184,15.19732"
     id="path4984"
     inkscape:connector-curvature="0"
     style="fill:#e78724;stroke-width:0.57762522" />
  <path
     d="m 142.00089,233.06473 c 0,0 2.06502,12.624 10.33545,12.624 7.02797,0 9.09876,-10.66296 9.09876,-12.8666 l -19.43479,0.2426 z m -13.76365,-19.03737 c 0.73474,-2.02285 3.30748,-10.20087 4.13407,-17.64356 0.98773,-8.91392 0.62961,-21.9515 0.62961,-21.9515 0,0 -2.20653,8.54597 -4.14158,9.92707 -1.92927,1.37764 -5.51631,10.7496 -5.51631,10.7496 0,0 -1.9235,13.95312 -2.83615,18.64286 2.53,0.50658 4.65566,-0.9837 7.71708,0.27553 z m -19.97196,-55.30762 c 0,0 4.68454,-1.65547 6.06505,-11.85402 1.37764,-10.20086 -1.65546,-19.02235 -1.65546,-19.02235 0,0 0.27552,14.05939 -1.37764,16.81698 -1.65547,2.75527 -3.03253,3.58301 -4.96296,7.16832 -1.931,3.58475 0.82601,5.78781 1.93101,6.89107 z"
     id="path4986"
     inkscape:connector-curvature="0"
     style="fill:#e78724;stroke-width:0.57762522" />
  <path
     d="m 113.859,92.531981 -0.95598,-0.606506 c -2.82054,0.09589 0.95655,0.606506 0.95655,0.606506 z"
     id="path4988"
     inkscape:connector-curvature="0"
     style="fill:#fdc168;stroke-width:0.57762522" />
  <path
     d="m 149.14381,97.886566 c 0,0 -4.4096,-0.734739 -6.61612,-4.042221 -2.20653,-3.308636 -8.45412,-9.925911 -18.41469,-9.999848 -9.95826,-0.07509 -19.81254,2.647257 -19.81254,2.647257 l 8.60083,5.429677 c 0.91034,-0.02888 2.50112,-0.01732 5.13162,0.06931 10.79467,0.358127 12.45649,11.032649 12.45649,11.032649 l 38.04818,-5.239069"
     id="path4990"
     inkscape:connector-curvature="0"
     style="fill:#fba919;stroke-width:0.57762522" />
  <path
     d="m 152.81982,156.85979 c 0,0 -5.14665,5.14664 -13.04971,3.49116 -7.90365,-1.65316 -12.68292,-5.14548 -13.05029,-11.2117 -0.36737,-6.06507 1.65548,-8.45355 1.65548,-8.45355 0,0 8.8261,2.76106 13.05432,6.43475 4.22822,3.67947 7.35317,9.5597 11.39655,9.74454 z"
     id="path4992"
     inkscape:connector-curvature="0"
     style="fill:#ffffff;stroke-width:0.57762522" />
  <path
     d="m 146.59186,155.02179 c 0,0 -4.46331,2.03901 -9.45226,0.37776 -6.53063,-2.17765 -6.96616,-8.97051 -6.96616,-8.97051 0,0 -4.00583,11.75756 7.22609,14.02069 9.0098,1.8149 14.33781,-3.40568 14.33781,-3.40568 l -5.14548,-2.02169 z"
     id="path4994"
     inkscape:connector-curvature="0"
     style="fill:#c9c9c9;stroke-width:0.57762522" />
  <path
     d="m 149.76418,95.392381 c -0.48059,-10.083026 7.78523,-18.114327 10.64909,-18.455125 0.15828,1.708037 -0.15942,8.372677 2.70329,10.422091 0.8341,-5.441807 3.65291,-11.443333 14.78375,-15.376961 -2.38387,6.322686 -0.3177,11.618932 0.66541,14.073839 7.60156,-6.899156 12.7222,-5.758923 12.7222,-5.758923 0,0 -5.28123,9.113192 -3.21564,15.093347 -15.25855,-1.19684 -38.23417,1.620816 -38.3081,0.0018 z m -32.34874,15.359059 c -3.64078,-3.02099 -0.92709,-5.8242 -1.21475,-9.25587 -0.15596,-1.825292 -0.30037,-3.548931 -0.90283,-4.499701 -3.35023,-5.289892 -11.25214,-6.895113 -11.33301,-6.911864 l -3.70835,-0.726652 2.45491,-2.87253 c 0.31769,-0.371991 10.40302,-9.992917 26.01046,-4.956024 10.91711,3.521202 18.99809,15.459561 19.29845,15.942455 l -5.47011,2.573326 c -0.0635,-0.101672 -6.45206,-11.323193 -15.81537,-14.34244 -7.56689,-2.443354 -14.54461,-0.119567 -17.5367,1.40363 3.17694,1.268465 7.33006,3.578388 9.83695,7.529922 1.18414,1.86573 1.38053,4.216665 1.57114,6.491358 0.25416,3.01231 0.49099,5.85596 2.70907,7.69743 l -5.89178,1.92638 z m -9.72375,44.09128 c 0,0 4.58635,-5.68787 5.94549,-16.75575 0.53373,-4.35934 -0.41415,-12.95787 -1.93099,-16.26593 0.27553,8.13297 -1.7918,16.26593 -1.7918,16.26593 0,0 -1.39208,15.10143 -2.21808,16.75575 z"
     id="path4996"
     inkscape:connector-curvature="0"
     style="fill:#463014;stroke-width:0.57762522" />
  <path
     d="m 131.87859,105.00638 c -0.003,-0.0116 -1.47179,-6.433595 -5.5452,-9.675227 -5.74737,-4.571326 -12.76436,-2.139524 -12.83194,-2.118151 l -1.01663,-3.148058 c 0.3408,-0.109749 8.36402,-2.636859 15.75184,2.558879 7.43404,5.225198 8.32936,9.961727 8.40445,10.485057 l -4.75963,1.8975 z m -9.78035,45.75715 c 0,0 -2.40639,-3.44495 -1.97375,-7.2336 0.21546,-1.8715 1.08247,-3.79153 2.63051,-4.47313 2.87658,-1.25922 4.15312,1.99859 4.15312,1.99859 0,0 -4.04915,0.99929 -4.80584,9.70988 z"
     id="path4998"
     inkscape:connector-curvature="0"
     style="fill:#463014;stroke-width:0.57762522" />
  <path
     d="m 148.52055,156.01415 c 0.10051,0.18773 0.15192,0.29286 0.15192,0.29286 0,0 -7.50567,5.63299 -15.19732,-0.0832 -4.11847,-3.06142 -3.72915,-10.63408 -2.46762,-13.84567 3.28092,0.74513 6.06276,2.08523 8.38828,3.65059 -2.93896,-2.62242 -5.5117,-4.55169 -5.50477,-4.5979 l -3.34041,-0.9473 -6.4925,-2.22386 c -0.0832,0.49675 -2.45145,11.59871 4.38417,19.15983 3.02964,3.356 17.23345,10.86512 23.97722,-1.97548 l -3.89897,0.5834 z"
     id="path5000"
     inkscape:connector-curvature="0"
     style="fill:#463014;stroke-width:0.57762522" />
  <path
     d="m 147.81758,156.83957 c 4.22591,6.43186 14.88829,2.75643 14.70461,-4.04337 0,0 -7.12444,3.93189 -13.41824,-3.30748 -3.67543,-4.22245 -15.45147,-15.87892 -31.41992,-12.00306 11.02802,2.42603 25.6275,12.49981 30.13355,19.362 z"
     id="path5002"
     inkscape:connector-curvature="0"
     style="fill:#463014;stroke-width:0.57762522" />
  <path
     d="m 116.1926,174.99202 c 1.01662,0.58745 4.60136,4.30043 4.60367,9.85429 0,2.78416 -0.27726,16.77424 -1.65547,25.3202 2.07367,1.34703 3.51774,1.63352 5.58159,3.00654 1.03395,-9.89818 1.77446,-24.24408 1.42904,-30.03536 -0.39278,-6.60225 -3.92785,-11.03264 -7.20298,-12.92147 -1.0224,-0.59033 -2.09678,-1.17085 -3.17694,-1.75483 -5.61451,-3.03368 -11.41965,-6.17192 -11.41965,-11.53056 0,-4.19181 1.62891,-5.50303 3.356,-6.89279 l 0.18484,-0.15019 c 1.1437,-0.92535 2.44336,-1.97432 3.2116,-3.6968 2.09678,-4.70937 2.43758,-16.70492 0,-19.75074 -1.21301,-1.51915 -4.47082,-6.62536 -3.53507,-10.05067 0.35813,-1.31121 1.18414,-2.28162 2.52423,-2.969 1.42096,-0.72781 3.33867,-1.09749 5.70116,-1.09749 4.63833,0 9.78497,1.40941 12.43627,2.25275 9.48461,3.00365 20.92736,11.66802 24.20827,14.25578 l 0.16174,0.1213 2.09677,1.46139 -1.3112,-2.20074 c -0.0809,-0.13864 -8.3929,-13.81103 -23.26097,-18.82481 -2.89391,-0.97619 -8.57196,-2.61087 -14.1576,-2.61087 -3.32134,0 -6.14593,0.57762 -8.38133,1.72133 -2.72062,1.39207 -4.56324,3.61593 -5.33149,6.42319 -1.87728,6.88529 4.23977,14.55037 4.44772,14.79875 0.71625,1.27078 1.01662,10.51278 -0.62961,14.21536 -0.22528,0.50831 -0.84334,1.01084 -1.63469,1.64623 -0.24259,0.1964 -0.51986,0.40434 -0.81444,0.62384 -2.32206,1.7502 -5.834016,4.4015 -5.834016,10.507 0,8.35246 8.473756,12.88682 15.278186,16.52586 1.12059,0.60073 2.18342,1.1668 3.14805,1.72132 z"
     id="path5004"
     inkscape:connector-curvature="0"
     style="fill:#463014;stroke-width:0.57762522" />
  <path
     d="m 117.41544,110.75086 c -3.64078,-3.02098 -0.92709,-5.82362 -1.21475,-9.25529 -0.15596,-1.825292 -0.30037,-3.548931 -0.90283,-4.499701 -3.35023,-5.289892 -11.25214,-6.895113 -11.33301,-6.911864 l -3.70835,-0.726652 2.45491,-2.87253 c 0.31769,-0.371991 10.40302,-9.992917 26.01046,-4.956024 10.91711,3.521202 18.99809,15.459561 19.29845,15.942455 l -5.47011,2.573326 c -0.0635,-0.101672 -6.45206,-11.323193 -15.81537,-14.34244 -7.56689,-2.443354 -14.54461,-0.119567 -17.5367,1.40363 3.17694,1.268465 7.33006,3.578388 9.83695,7.529922 1.18414,1.86573 1.38053,4.216665 1.57114,6.491358 0.25416,3.01231 0.49099,5.85596 2.70907,7.69743 l -5.89178,1.92638 z"
     id="path5006"
     inkscape:connector-curvature="0"
     style="fill:#463014;stroke-width:0.57762522" />
  <path
     d="m 117.29702,111.36949 -0.23509,-0.19466 c -2.69982,-2.23541 -2.22097,-4.44771 -1.75714,-6.57914 0.21083,-0.98197 0.43322,-2.00436 0.34311,-3.04987 -0.14729,-1.755982 -0.28881,-3.413762 -0.81791,-4.251319 -3.1885,-5.036892 -10.8998,-6.648466 -10.97488,-6.665795 l -4.632556,-0.912648 3.072966,-3.587053 c 0.0578,-0.06354 6.53294,-6.602256 17.49626,-6.602256 2.9921,0 6.05352,0.496758 9.0976,1.484497 11.39077,3.673697 19.52374,16.052205 19.59882,16.173507 l 0.32925,0.525638 -6.47518,3.049859 -0.25993,-0.41011 c -0.69315,-1.184132 -6.8333,-11.309903 -15.52079,-14.111386 -2.13144,-0.69315 -4.3784,-1.039725 -6.67735,-1.039725 -4.1589,0 -7.53223,1.137922 -9.32865,1.894611 3.00365,1.351643 6.63692,3.627486 8.94164,7.260748 1.25346,1.981255 1.45562,4.395728 1.65201,6.729332 0.24261,2.90546 0.47365,5.63762 2.51268,7.33007 l 0.76823,0.63539 -7.12789,2.33938 z"
     id="path5008"
     inkscape:connector-curvature="0"
     style="fill:#463014;stroke-width:0.57762522" />
  <path
     d="m 131.87859,105.00638 c -0.003,-0.0116 -1.47179,-6.433595 -5.5452,-9.675227 -5.74737,-4.571326 -12.76436,-2.139524 -12.83194,-2.118151 l -1.01663,-3.148058 c 0.3408,-0.109749 8.36402,-2.636859 15.75184,2.558879 7.43404,5.225198 8.32936,9.961727 8.40445,10.485057 l -4.75963,1.8975 z"
     id="path5010"
     inkscape:connector-curvature="0"
     style="fill:#463014;stroke-width:0.57762522" />
  <path
     d="m 131.4835,105.75729 -0.14326,-0.63192 c -0.015,-0.0618 -1.45561,-6.263772 -5.35228,-9.361576 -2.22038,-1.767533 -4.89825,-2.662852 -7.95389,-2.662852 -2.38559,0 -4.1589,0.571849 -4.35241,0.635388 l -0.52679,0.179064 -1.36319,-4.199336 0.52563,-0.167511 c 0.23683,-0.07509 2.36249,-0.739361 5.37769,-0.739361 3.97407,0 7.72863,1.166804 10.86513,3.373332 7.62465,5.360362 8.55464,10.310612 8.6355,10.859352 l 0.0693,0.43322 -5.76471,2.29895 z M 118.03407,91.9971 c 3.26474,0 6.25568,1.003913 8.64127,2.901989 3.45997,2.755272 5.08715,7.618881 5.57986,9.363311 l 3.74879,-1.49432 c -0.33906,-1.32392 -1.83396,-5.296826 -8.08676,-9.692554 -2.99093,-2.102555 -6.43185,-3.167697 -10.22974,-3.167697 -2.08407,0 -3.70257,0.331558 -4.50317,0.533726 l 0.67583,2.091004 c 0.78557,-0.211411 2.29433,-0.535459 4.17392,-0.535459 z m 33.95685,150.66314 c -1.6289,0 -3.29131,-0.59091 -4.44367,-1.58847 -0.88203,-0.76015 -3.86431,-3.50041 -5.18014,-6.85641 -0.49098,-1.25518 -0.38124,-2.25852 0.33155,-2.9817 0.49099,-0.49502 1.50992,-1.08709 3.57839,-1.08709 l 1.4718,-0.003 c 1.75597,-0.002 4.70764,-0.002 7.23186,-0.002 h 2.42025 c 1.57692,0 2.70329,0.3408 3.35023,1.00507 0.83178,0.85489 0.56607,1.94659 0.33502,2.51844 -0.40434,1.00507 -2.07946,4.27443 -4.92136,7.30696 -1.01663,1.09172 -2.49535,1.69245 -4.16469,1.69245 z m 1.70689,-85.44232 -5.88023,-0.37835 c 0,0 1.50298,2.65015 2.47685,6.07777 1.09981,3.87587 -1.00506,9.54238 -1.00506,9.54238 0,0 7.84126,-8.87811 4.40902,-15.24354 z M 146.35619,258.1897 C 125.4242,256.581 118.05948,236.80139 118.05948,232.68177 l 5.46665,0.003 h -2.73332 2.73332 c 0.0271,1.78486 5.59026,18.7035 23.24941,20.06092 l -0.41877,5.45278 z"
     id="path5012"
     inkscape:connector-curvature="0"
     style="fill:#463014;stroke-width:0.57762522" />
  <path
     d="m 140.47423,222.75181 c -0.32693,-1.89057 -0.36102,-3.68352 0.0382,-5.44527 -1.59078,-1.19569 -4.4454,-1.64046 -6.58723,-2.33938 -1.75599,-1.10904 -10.71496,1.13214 -17.21901,-6.73512 -8.1503,-9.85428 -6.43475,-15.74028 -6.43475,-15.74028 -2.091,2.32205 -4.11269,1.43251 -7.30118,12.2572 -3.188486,10.8247 1.49605,18.36848 10.22974,25.94116 4.12424,3.5755 9.95825,5.04844 14.97205,5.61451 -1.68089,-1.68666 2.8708,-1.85996 6.0073,-3.03254 -0.25415,-2.53577 0.16751,-4.99067 2.05635,-6.97193 1.13792,-1.19568 2.60508,-1.90616 4.12424,-2.47801 0.0867,-0.1964 0.15596,-0.37546 0.23682,-0.56607 -0.052,-0.17329 -0.0982,-0.34658 -0.13285,-0.53142 z"
     id="path5014"
     inkscape:connector-curvature="0"
     style="fill:#ffffff;stroke-width:0.57762522" />
  <path
     d="m 134.14519,233.22647 c -0.18079,-0.53142 -0.31769,-1.07439 -0.45228,-1.61909 -0.14441,-0.59495 -0.86643,-2.28277 0.0231,-0.3564 -0.22873,-0.49329 -0.37834,-1.0016 -0.48867,-1.51338 -14.14026,-0.0185 -26.44368,-9.7272 -24.06387,-30.14048 -1.84839,-2.45779 -4.44193,4.95603 -4.44193,4.95603 0,0 -7.075906,20.55652 11.20593,28.52313 6.09394,2.65708 11.4774,4.56208 12.74819,3.79327 2.64552,0.53719 5.03689,-1.30717 5.93221,-2.52018 -0.16751,-0.37257 -0.3177,-0.74514 -0.45055,-1.12348 z"
     id="path5016"
     inkscape:connector-curvature="0"
     style="fill:#c9c9c9;stroke-width:0.57762522" />
  <path
     d="m 140.2195,219.79206 c 0.0219,-1.72306 0.37372,-3.39182 1.20723,-5.05423 0.0578,-0.11551 0.12535,-0.22527 0.18774,-0.33617 -5.44124,-0.0462 -11.70847,-0.56781 -17.04573,-2.70329 -5.86289,-2.34688 -13.19873,-10.37414 -14.46373,-19.80561 0,0 -11.044186,8.52459 -7.79794,26.77062 3.04408,17.13352 17.38074,22.71915 33.73331,23.66415 0.0116,-0.11091 -1.83684,-3.92785 -1.25345,-6.26435 -9.28243,0.67583 -19.66813,-2.91123 -24.67615,-11.15971 -4.58633,-7.54379 -3.29824,-20.43061 -1.41517,-22.31945 4.60366,14.51573 21.15263,17.46739 31.53255,17.21323 z"
     id="path5018"
     inkscape:connector-curvature="0"
     style="fill:#463014;stroke-width:0.57762522" />
  <path
     d="m 141.93274,209.40058 c -2.94243,8.63549 -8.95319,15.62303 -8.95319,15.62303 0,0 8.26812,-0.38123 8.72444,-1.84263 0.33791,-1.08016 7.46524,-17.76197 10.20087,-37.30881 -2.57332,4.22822 -9.72028,22.78154 -9.97212,23.5209 z"
     id="path5020"
     inkscape:connector-curvature="0"
     style="fill:#463014;stroke-width:0.57762522" />
  <path
     d="m 188.77294,189.49273 c 0,0 9.37197,14.33376 16.25033,24.50575 1.06398,1.57345 -6.87836,1.68262 -6.87836,1.68262 z m -4.46504,-29.71709 c 0,0 2.8269,7.04934 4.37262,10.78657 1.68089,4.06302 8.08675,6.08413 8.08675,6.08413 0,0 -3.32134,-3.48308 -3.32134,-12.30688 0,-3.6968 -4.77811,-5.16975 -4.77811,-5.16975 l -4.3553,0.61229 z"
     id="path5022"
     inkscape:connector-curvature="0"
     style="fill:#e78724;stroke-width:0.57762522" />
  <path
     d="m 187.16253,163.76126 c 0,0 5.78953,6.89106 16.54203,3.03253 10.75249,-3.85853 11.85402,-17.64414 11.85402,-21.50383 0,-3.8597 -20.39999,3.85969 -23.157,5.514 -2.75815,1.65432 -7.99433,8.26987 -5.23905,12.9573 z m 40.60705,-73.641442 c 0,0 -9.92361,-1.931578 -16.54088,3.306904 -6.61958,5.237328 -8.54885,9.373708 -8.54885,9.373708 l 11.14816,8.83881 c 0,0 5.38924,-2.49822 7.04125,-9.66655 1.65202,-7.167176 0.54875,-10.474658 6.89107,-11.852872 z"
     id="path5024"
     inkscape:connector-curvature="0"
     style="fill:#e78724;stroke-width:0.57762522" />
  <path
     d="m 190.05816,143.85456 c 4.27269,-6.06507 11.31163,-8.71059 16.93597,-9.14958 9.58684,-0.74918 14.13564,2.63974 14.13564,2.63974 0,0 -15.69985,0.66427 -20.22554,6.60803 -8.42467,11.06153 -20.71018,11.96031 -22.67526,9.53082 2.27007,0.11321 4.77119,-1.01257 7.44559,-3.54257 1.66934,-1.58269 3.02676,-4.16122 4.3784,-6.08644 z m 26.5026,21.44549 c 0,0 17.41771,-5.98824 14.10965,-12.05215 -3.30749,-6.07084 -0.67698,-9.37486 -0.67698,-9.37486 0,0 9.72894,7.26075 7.24804,14.97783 -1.52319,4.73652 -4.07803,8.16762 -18.11086,14.74099 -6.7351,12.49981 -1.39208,35.00409 -1.70977,35.10806 -0.53719,0.17329 -9.44994,-4.40728 -8.84344,-25.46172 0.18484,-6.46363 0.69893,-15.28974 7.977,-17.95259 z m -22.82544,-64.39366 c 7.30118,3.71067 17.3097,8.8781 17.3097,8.8781 l -3.93364,1.9697 c 0.37546,0.6094 0.5603,0.97272 0.5603,0.97272 l -4.03759,1.838 c 0,0 -9.86584,7.14812 -15.91358,11.74312 2.01591,-6.20657 7.93079,-15.95804 7.93079,-15.95804 0,0 1.68089,-4.48064 -1.90616,-9.44417 z m -24.26373,151.25694 c 22.44652,0 30.05095,-11.39654 30.05095,-11.39654 l -3.50617,8.54307 c -1.32624,3.6968 -15.47458,15.19732 -26.51069,15.19732"
     id="path5026"
     inkscape:connector-curvature="0"
     style="fill:#e78724;stroke-width:0.57762522" />
  <path
     d="m 197.06475,233.06473 c 0,0 -2.0679,12.624 -10.33602,12.624 -7.02681,0 -9.0976,-10.66296 -9.0976,-12.8666 z m 13.76308,-19.03737 c -0.73474,-2.02285 -3.30748,-10.20087 -4.1358,-17.64356 -0.9912,-8.91392 -0.62787,-21.9515 -0.62787,-21.9515 0,0 2.20652,8.54597 4.13348,9.92707 1.93157,1.37764 5.51401,10.7496 5.51401,10.7496 0,0 1.92003,13.95312 2.83383,18.64286 -2.52827,0.50658 -4.65566,-0.9837 -7.71708,0.27553 z m 19.97428,-55.30762 c 0,0 -4.68801,-1.65547 -6.06507,-11.85402 -1.37821,-10.20086 1.65432,-19.02235 1.65432,-19.02235 0,0 -0.27726,14.05939 1.37475,16.81698 1.65201,2.757 3.03253,3.58301 4.9618,7.16832 1.92927,3.58417 -0.83178,5.78781 -1.92927,6.89107 z"
     id="path5028"
     inkscape:connector-curvature="0"
     style="fill:#e78724;stroke-width:0.57762522" />
  <path
     d="m 225.20492,92.531981 0.95886,-0.606506 c 2.82054,0.09589 -0.95886,0.606506 -0.95886,0.606506 z"
     id="path5030"
     inkscape:connector-curvature="0"
     style="fill:#fdc168;stroke-width:0.57762522" />
  <path
     d="m 189.91953,97.886566 c 0,0 4.4119,-0.734739 6.61612,-4.042221 2.20653,-3.308636 8.45643,-9.925911 18.41642,-9.999848 9.95941,-0.07509 19.81255,2.647257 19.81255,2.647257 l -8.60084,5.429677 c -0.91034,-0.02888 -2.50112,-0.01732 -5.13393,0.06931 -10.79293,0.358127 -12.45476,11.032649 -12.45476,11.032649 l -38.0424,-5.239069"
     id="path5032"
     inkscape:connector-curvature="0"
     style="fill:#fba919;stroke-width:0.57762522" />
  <path
     d="m 186.24468,156.85979 c 0,0 5.14663,5.14664 13.04855,3.49116 7.90422,-1.65316 12.68292,-5.14548 13.05086,-11.2117 0.3668,-6.06507 -1.65374,-8.45355 -1.65374,-8.45355 0,0 -8.82322,2.76106 -13.05028,6.43475 -4.22707,3.6737 -7.35086,9.5597 -11.39539,9.74454 z"
     id="path5034"
     inkscape:connector-curvature="0"
     style="fill:#ffffff;stroke-width:0.57762522" />
  <path
     d="m 192.47147,155.02179 c 0,0 4.46505,2.03901 9.45227,0.37776 6.53294,-2.17765 6.96731,-8.97051 6.96731,-8.97051 0,0 4.0041,11.75756 -7.2284,14.02069 -9.00749,1.8149 -14.33666,-3.40568 -14.33666,-3.40568 l 5.14548,-2.02169 z"
     id="path5036"
     inkscape:connector-curvature="0"
     style="fill:#c9c9c9;stroke-width:0.57762522" />
  <path
     d="m 221.64964,110.75086 c 3.64019,-3.02098 0.92882,-5.82362 1.21648,-9.25529 0.15364,-1.825292 0.29805,-3.548931 0.90109,-4.499701 3.35023,-5.289892 11.2533,-6.895113 11.33474,-6.911864 l 3.70835,-0.726652 -2.4549,-2.87253 c -0.31769,-0.371991 -10.40303,-9.992917 -26.01047,-4.956024 -10.91711,3.521202 -18.99809,15.459561 -19.29846,15.942455 l 5.47012,2.573326 c 0.0635,-0.101672 6.45207,-11.323193 15.82115,-14.34244 7.56689,-2.443354 14.5446,-0.119567 17.53093,1.40363 -3.17695,1.268465 -7.33007,3.578388 -9.83696,7.529922 -1.18413,1.86573 -1.38053,4.216665 -1.57115,6.491358 -0.25415,3.01231 -0.49675,5.85596 -2.71483,7.69743 l 5.886,1.92638 z m 9.72143,44.09186 c 0,0 -4.58461,-5.68787 -5.94377,-16.75575 -0.53314,-4.35934 0.41301,-12.95787 1.92927,-16.26593 -0.27553,8.13297 1.79353,16.26593 1.79353,16.26593 0,0 1.39439,15.10143 2.22097,16.75575 z"
     id="path5038"
     inkscape:connector-curvature="0"
     style="fill:#463014;stroke-width:0.57762522" />
  <path
     d="m 207.1859,105.00638 c 0.003,-0.0116 1.47294,-6.433595 5.54694,-9.675227 5.74621,-4.571326 12.76378,-2.139524 12.82905,-2.118151 l 1.0224,-3.148058 c -0.3408,-0.109749 -8.36055,-2.636859 -15.75415,2.558879 -7.43982,5.225198 -8.32936,9.961727 -8.41023,10.485057 l 4.75964,1.8975 z m 9.78093,45.75715 c 0,0 2.40638,-3.44495 1.97144,-7.2336 -0.21373,-1.8715 -1.08016,-3.79153 -2.6282,-4.47313 -2.87657,-1.25922 -4.15197,1.99859 -4.15197,1.99859 0,0 4.04915,0.99929 4.80873,9.70988 z"
     id="path5040"
     inkscape:connector-curvature="0"
     style="fill:#463014;stroke-width:0.57762522" />
  <path
     d="m 190.54452,156.01415 c -0.0999,0.18773 -0.15191,0.29286 -0.15191,0.29286 0,0 7.50335,5.63299 15.19558,-0.0832 4.1202,-3.06142 3.73146,-10.63408 2.46646,-13.84567 -3.27802,0.74513 -6.05929,2.08523 -8.38712,3.65059 2.94011,-2.62242 5.51286,-4.55169 5.50361,-4.5979 l 3.34272,-0.9473 6.48673,-2.22386 c 0.0809,0.49675 2.44913,11.59871 -4.38995,19.15983 -3.03254,3.356 -17.23633,10.86512 -23.97722,-1.97548 l 3.89897,0.5834 z"
     id="path5042"
     inkscape:connector-curvature="0"
     style="fill:#463014;stroke-width:0.57762522" />
  <path
     d="m 191.24576,156.83957 c -4.22591,6.43186 -14.88541,2.75643 -14.70057,-4.04337 0,0 7.12212,3.93189 13.41593,-3.30748 3.67485,-4.22245 15.45263,-15.87892 31.42108,-12.00306 -11.02687,2.42603 -25.62808,12.49981 -30.13644,19.362 z"
     id="path5044"
     inkscape:connector-curvature="0"
     style="fill:#463014;stroke-width:0.57762522" />
  <path
     d="m 222.87421,174.99202 c -1.01663,0.58745 -4.60368,4.30043 -4.60368,9.85429 -0.003,2.78416 0.27552,16.77424 1.65547,25.3202 -2.07368,1.34703 -3.51773,1.63352 -5.58217,3.00654 -1.03395,-9.89818 -1.77678,-24.24408 -1.42904,-30.03536 0.39451,-6.60225 3.92785,-11.03264 7.20529,-12.92147 1.02644,-0.59033 2.09967,-1.17085 3.18272,-1.75483 5.61451,-3.03368 11.41965,-6.17192 11.41965,-11.53056 0,-4.19181 -1.63121,-5.50303 -3.356,-6.89279 l -0.18484,-0.15019 c -1.1437,-0.92535 -2.4422,-1.97432 -3.20755,-3.6968 -2.09678,-4.70937 -2.44336,-16.70492 -0.006,-19.75074 1.21301,-1.51915 4.47082,-6.62536 3.53506,-10.05067 -0.35812,-1.31121 -1.18413,-2.28162 -2.52421,-2.969 -1.42096,-0.72781 -3.33868,-1.09749 -5.70117,-1.09749 -4.63833,0 -9.78497,1.40941 -12.43627,2.25275 -9.4846,3.00365 -20.92736,11.66802 -24.21405,14.25578 -0.0924,0.0693 -0.15018,0.11553 -0.16174,0.1213 l -2.10255,1.46139 1.31121,-2.20074 c 0.0809,-0.13864 8.3929,-13.81103 23.26096,-18.82481 2.89391,-0.97619 8.57196,-2.61087 14.1576,-2.61087 3.32135,0 6.14016,0.57762 8.37556,1.72133 2.72062,1.39207 4.56325,3.61593 5.33149,6.42319 1.87728,6.88529 -4.23399,14.55037 -4.44772,14.79875 -0.71625,1.27078 -1.01662,10.51278 0.62961,14.21536 0.22528,0.50831 0.84911,1.01084 1.63469,1.64623 0.24838,0.1964 0.51986,0.40434 0.81445,0.62384 2.32205,1.7502 5.83401,4.4015 5.83401,10.507 0,8.35246 -8.46799,12.88682 -15.27241,16.52586 -1.11482,0.60073 -2.18343,1.1668 -3.14228,1.72132 z"
     id="path5046"
     inkscape:connector-curvature="0"
     style="fill:#463014;stroke-width:0.57762522" />
  <path
     d="m 212.77153,109.76774 c -1.34702,-2.28162 -4.79197,-6.68717 -12.73201,-10.558992 -8.86077,-4.318323 -19.11592,-6.509833 -30.48532,-6.51561 v -0.0023 h -0.0404 v 0.0058 c -11.36767,0.0058 -21.6263,2.200752 -30.48707,6.51561 -7.93657,3.875872 -11.37921,8.277372 -12.73086,10.558992 l -0.57762,0.76824 6.79807,1.5128 0.21835,-0.27148 0.11379,-0.25069 c 0.10397,-0.45055 1.01662,-2.87658 8.59737,-6.57338 8.10408,-3.95211 17.55403,-5.955312 28.08991,-5.961089 10.53588,0.0046 19.98584,2.008409 28.08992,5.961089 7.57844,3.6968 8.49687,6.12283 8.60084,6.57222 l 0.10974,0.25012 0.21373,0.27147 6.79865,-1.51337 -0.57763,-0.76477 z"
     id="path5048"
     inkscape:connector-curvature="0"
     style="fill:#463014;stroke-width:0.57762522" />
  <path
     d="m 221.64964,110.75086 c 3.64019,-3.02098 0.92882,-5.82362 1.21648,-9.25529 0.15364,-1.825292 0.29805,-3.548931 0.90109,-4.499701 3.35023,-5.289892 11.2533,-6.895113 11.33474,-6.911864 l 3.70835,-0.726652 -2.4549,-2.87253 c -0.31769,-0.371991 -10.40303,-9.992917 -26.01047,-4.956024 -10.91711,3.521202 -18.99809,15.459561 -19.29846,15.942455 l 5.47012,2.573326 c 0.0635,-0.101672 6.45207,-11.323193 15.82115,-14.34244 7.56689,-2.443354 14.5446,-0.119567 17.53093,1.40363 -3.17695,1.268465 -7.33007,3.578388 -9.83696,7.529922 -1.18413,1.86573 -1.38053,4.216665 -1.57115,6.491358 -0.25415,3.01231 -0.49675,5.85596 -2.71483,7.69743 l 5.886,1.92638 z"
     id="path5050"
     inkscape:connector-curvature="0"
     style="fill:#463014;stroke-width:0.57762522" />
  <path
     d="m 214.64189,109.03532 0.76592,-0.63771 c 2.03903,-1.69128 2.26776,-4.42287 2.51384,-7.32659 0.19754,-2.339388 0.40145,-4.753861 1.65316,-6.735116 2.3001,-3.633262 5.94145,-5.903329 8.94163,-7.260749 -1.79641,-0.762465 -5.1709,-1.89461 -9.33211,-1.89461 -2.29895,0 -4.54129,0.346575 -6.67503,1.033949 -8.68749,2.801482 -14.82533,12.921474 -15.5208,14.111386 l -0.25993,0.41011 -6.47518,-3.044083 0.32925,-0.525639 c 0.0769,-0.121301 8.20228,-12.49981 19.59593,-16.173506 3.04987,-0.987739 6.11128,-1.484497 9.10338,-1.484497 10.96911,0 17.44428,6.538717 17.49627,6.602256 l 3.07296,3.59283 -4.63255,0.906871 c -0.0751,0.01155 -7.78638,1.628903 -10.97488,6.665795 -0.52564,0.837556 -0.66427,2.495341 -0.81445,4.251323 -0.0867,1.0455 0.13285,2.06212 0.34657,3.04986 0.46211,2.13144 0.94154,4.34374 -1.75597,6.57915 l -0.23106,0.19062 -7.12789,-2.33938 z"
     id="path5052"
     inkscape:connector-curvature="0"
     style="fill:#463014;stroke-width:0.57762522" />
  <path
     d="m 207.1859,105.00638 c 0.003,-0.0116 1.47294,-6.433595 5.54694,-9.675227 5.74621,-4.571326 12.76378,-2.139524 12.82905,-2.118151 l 1.0224,-3.148058 c -0.3408,-0.109749 -8.36055,-2.636859 -15.75415,2.558879 -7.43982,5.225198 -8.32936,9.961727 -8.41023,10.485057 l 4.75964,1.8975 z"
     id="path5054"
     inkscape:connector-curvature="0"
     style="fill:#463014;stroke-width:0.57762522" />
  <path
     d="m 201.81688,103.46007 0.0635,-0.43206 c 0.0809,-0.54643 1.01258,-5.498994 8.63318,-10.855889 3.1365,-2.203063 6.89685,-3.368711 10.86514,-3.368711 3.0152,0 5.14086,0.664269 5.37769,0.739361 l 0.52563,0.173287 -1.36319,4.199336 -0.52564,-0.173288 c -0.1964,-0.06354 -1.96971,-0.635388 -4.34952,-0.635388 -3.05564,0 -5.73004,0.901096 -7.94812,2.668628 -3.8932,3.101848 -5.33726,9.299764 -5.34881,9.363304 l -0.13863,0.63539 -5.7647,-2.29895 z m 23.38804,-10.928667 0.67871,-2.089848 c -0.80059,-0.203323 -2.42141,-0.533726 -4.50548,-0.533726 -3.7973,0 -7.23937,1.066297 -10.22974,3.167697 -6.25395,4.395728 -7.74884,8.368634 -8.08791,9.692554 l 3.75284,1.49432 c 0.49097,-1.74443 2.11641,-6.609193 5.57754,-9.363311 2.39137,-1.898076 5.37769,-2.901989 8.64127,-2.901989 1.87729,0 3.39066,0.323471 4.17623,0.534881 z M 182.90947,240.97241 c -2.84018,-3.03715 -4.5205,-6.30477 -4.92714,-7.30868 -0.23105,-0.57185 -0.49676,-1.66183 0.33675,-2.51845 0.64925,-0.66254 1.77446,-1.00276 3.34791,-1.00276 h 2.42603 c 2.52423,0 5.47589,0 7.23187,0.006 l 1.47294,0.006 c 2.0679,0 3.0903,0.59496 3.5755,1.08594 0.71626,0.72203 0.82601,1.7271 0.33503,2.98632 -1.31699,3.356 -4.29753,6.09973 -5.1813,6.85642 -1.15525,0.99928 -2.81304,1.58846 -4.44194,1.58846 -1.66934,0 -3.14806,-0.60073 -4.16468,-1.68666 z m 2.45837,-83.75449 5.87792,-0.37835 c 0,0 -1.50183,2.65015 -2.47513,6.07777 -1.10327,3.87587 1.00507,9.54238 1.00507,9.54238 0,0 -7.84415,-8.87811 -4.41306,-15.24354 z"
     id="path5056"
     inkscape:connector-curvature="0"
     style="fill:#463014;stroke-width:0.57762522" />
  <path
     d="m 169.5334,136.22008 c -3.74879,0 -8.63549,-0.10223 -12.30226,-2.73794 0,0 4.80122,8.41716 12.29591,8.41716 l 0.006,-1.06515 0.007,1.06515 c 7.49527,0 12.29591,-8.416 12.29591,-8.416 -3.66677,2.63397 -8.55752,2.73794 -12.30227,2.73794 z"
     id="path5058"
     inkscape:connector-curvature="0"
     style="fill:#e78724;stroke-width:0.57762522" />
  <path
     d="m 179.85383,136.17965 c -3.76034,2.27584 -7.1175,3.0643 -10.32043,3.1342 -3.20351,-0.0693 -6.56009,-0.85836 -10.32043,-3.13362 0,0 5.47589,6.68312 10.29328,6.73511 v 0.006 h 0.0266 c 0.009,0 0.0174,0.006 0.0271,0.006 4.8174,-0.052 10.29907,-6.72934 10.29907,-6.72934 z m 12.85505,122.01005 -0.41936,-5.4499 c 17.65801,-1.35742 23.22054,-18.27779 23.24942,-20.05861 h 5.47011 c 0.006,4.11846 -7.36472,23.89981 -28.29208,25.50793 z"
     id="path5060"
     inkscape:connector-curvature="0"
     style="fill:#463014;stroke-width:0.57762522" />
  <path
     d="m 198.59083,222.75181 c 0.3281,-1.89057 0.35986,-3.68352 -0.0387,-5.44527 1.59308,-1.19569 4.4454,-1.64046 6.58723,-2.33938 1.75137,-1.10904 10.71611,1.13214 17.21901,-6.73512 8.14625,-9.85428 6.42897,-15.74028 6.42897,-15.74028 2.09101,2.32205 4.11384,1.43251 7.30003,12.2572 3.18849,10.8247 -1.49894,18.36848 -10.23091,25.94116 -4.12424,3.5755 -9.95709,5.04844 -14.97319,5.61451 1.68089,-1.68666 -2.86502,-1.85996 -6.00153,-3.03254 0.25416,-2.53577 -0.1675,-4.99067 -2.05634,-6.97193 -1.13215,-1.19568 -2.59931,-1.90616 -4.11847,-2.47801 -0.0867,-0.1964 -0.15596,-0.37546 -0.23683,-0.56607 0.052,-0.17329 0.0982,-0.34658 0.13285,-0.53142 z"
     id="path5062"
     inkscape:connector-curvature="0"
     style="fill:#ffffff;stroke-width:0.57762522" />
  <path
     d="m 204.91699,233.22647 c 0.18368,-0.53142 0.31769,-1.07439 0.45286,-1.61909 0.14729,-0.59495 0.86932,-2.28277 -0.0219,-0.3564 0.22873,-0.49329 0.37834,-1.0016 0.48867,-1.51338 14.14141,-0.0185 26.44368,-9.7272 24.06502,-30.14048 1.85129,-2.45779 4.4454,4.95603 4.4454,4.95603 0,0 7.07996,20.55652 -11.2042,28.52313 -6.0922,2.65708 -11.47568,4.56208 -12.74645,3.79327 -2.64841,0.53719 -5.03689,-1.30717 -5.93048,-2.52018 0.16751,-0.37257 0.32347,-0.74514 0.45632,-1.12348 z"
     id="path5064"
     inkscape:connector-curvature="0"
     style="fill:#c9c9c9;stroke-width:0.57762522" />
  <path
     d="m 198.84326,219.79206 c -0.0196,-1.72306 -0.37372,-3.39182 -1.20435,-5.05423 -0.059,-0.11551 -0.12708,-0.22527 -0.1883,-0.33617 5.44123,-0.0462 11.70846,-0.56781 17.04571,-2.70329 5.86521,-2.34688 13.20279,-10.37414 14.46374,-19.80561 0,0 11.04766,8.52459 7.8014,26.77062 -3.04985,17.13352 -17.38478,22.71915 -33.73561,23.66415 -0.009,-0.11091 1.83973,-3.92785 1.25517,-6.26435 9.28244,0.67583 19.66814,-2.91123 24.68193,-11.15971 4.58634,-7.54379 3.29824,-20.43061 1.41518,-22.31945 -4.5979,14.51573 -21.15264,17.46739 -31.53256,17.21323 z"
     id="path5066"
     inkscape:connector-curvature="0"
     style="fill:#463014;stroke-width:0.57762522" />
  <path
     d="m 205.44609,224.08959 c -1.95352,-2.1118 -5.5452,-4.62909 -13.82661,-4.62909 l -22.05373,-0.0132 h -0.052 c -6.35388,0.004 -22.05951,0.0132 -22.05951,0.0132 -8.27737,0 -11.8702,2.51844 -13.82257,4.62909 -2.8477,3.07297 -3.29247,7.34913 -1.32277,12.69331 5.23329,14.2246 12.59223,28.67621 37.21062,28.69642 v 0.003 h 0.0289 c 0.0116,0 0.0174,0.006 0.0289,0.006 24.61837,-0.0173 31.97732,-14.46951 37.2106,-28.69641 1.96971,-5.34304 1.52494,-9.61746 -1.32275,-12.69043 z m -3.83311,11.69576 c -2.49361,7.14291 -9.1958,24.43239 -32.08131,24.46242 -22.88782,-0.03 -29.58712,-17.31893 -32.08131,-24.46242 -1.37937,-3.96252 -1.27424,-6.8957 0.32347,-8.71753 1.09172,-1.24536 3.59861,-2.73216 9.31133,-2.73216 l 5.96859,-0.002 c 4.40324,-0.004 9.93169,-0.009 16.47965,-0.0116 6.54449,0.003 12.07584,0.008 16.47792,0.0116 l 5.96686,0.003 c 5.71445,0 8.22077,1.48449 9.31248,2.72639 1.59597,1.81951 1.70226,4.75385 0.32232,8.71636 z"
     id="path5068"
     inkscape:connector-curvature="0"
     style="fill:#463014;stroke-width:0.57762522" />
  <path
     d="m 197.13118,209.40058 c 2.94242,8.63549 8.95203,15.62303 8.95203,15.62303 0,0 -8.26581,-0.38123 -8.72214,-1.84263 -0.33502,-1.08016 -7.46291,-17.76197 -10.19508,-37.30881 2.57621,4.22822 9.72143,22.78154 9.97558,23.5209 z"
     id="path5070"
     inkscape:connector-curvature="0"
     style="fill:#463014;stroke-width:0.57762522" />
</svg>
