<?xml version="1.0" encoding="UTF-8" standalone="no"?>
<svg
   xmlns:dc="http://purl.org/dc/elements/1.1/"
   xmlns:cc="http://creativecommons.org/ns#"
   xmlns:rdf="http://www.w3.org/1999/02/22-rdf-syntax-ns#"
   xmlns:svg="http://www.w3.org/2000/svg"
   xmlns="http://www.w3.org/2000/svg"
   xmlns:sodipodi="http://sodipodi.sourceforge.net/DTD/sodipodi-0.dtd"
   xmlns:inkscape="http://www.inkscape.org/namespaces/inkscape"
   enable-background="new 0 0 32 32"
   height="32px"
   id="Layer_1"
   version="1.0"
   viewBox="0 0 32 32"
   width="32px"
   xml:space="preserve"
   sodipodi:docname="html5.svg"
   inkscape:version="0.92.0 unknown"><metadata
     id="metadata4779"><rdf:RDF><cc:Work
         rdf:about=""><dc:format>image/svg+xml</dc:format><dc:type
           rdf:resource="http://purl.org/dc/dcmitype/StillImage" /><dc:title /></cc:Work></rdf:RDF></metadata><defs
     id="defs4777" /><sodipodi:namedview
     pagecolor="#ffffff"
     bordercolor="#666666"
     borderopacity="1"
     objecttolerance="10"
     gridtolerance="10"
     guidetolerance="10"
     inkscape:pageopacity="0"
     inkscape:pageshadow="2"
     inkscape:window-width="1865"
     inkscape:window-height="1056"
     id="namedview4775"
     showgrid="false"
     inkscape:zoom="14.046875"
     inkscape:cx="0.74697816"
     inkscape:cy="14.109607"
     inkscape:window-x="55"
     inkscape:window-y="24"
     inkscape:window-maximized="1"
     inkscape:current-layer="Layer_1" /><path
     style="fill:#008fbc;fill-opacity:1;stroke:#474b6e;stroke-width:1.04456997;stroke-miterlimit:4;stroke-dasharray:none;stroke-opacity:1"
     id="path4781"
     sodipodi:type="arc"
     sodipodi:cx="16.050268"
     sodipodi:cy="15.941833"
     sodipodi:rx="15.487505"
     sodipodi:ry="15.487505"
     sodipodi:start="0"
     sodipodi:end="6.2715963"
     sodipodi:open="true"
     d="M 31.537773,15.941833 A 15.487505,15.487505 0 0 1 16.095139,31.429272 15.487505,15.487505 0 0 1 0.56302322,16.031574 15.487505,15.487505 0 0 1 15.915656,0.45491259 15.487505,15.487505 0 0 1 31.536733,15.762352" /><g
     id="g4760"
     transform="matrix(0.61888846,0,0,0.61888846,6.1693559,7.0944478)"><polygon
       points="4.625,28.889 2,0 30.002,0 27.377,28.889 16.001,32 "
       id="polygon4754"
       style="fill:#e44d26" /><polygon
       points="27.688,2 16,2 16,29.75 25.232,27.008 "
       id="polygon4756"
       style="fill:#ff6c39" /><polygon
       points="9.262,23.987 16,25.99 22.728,23.986 23.718,13 12.252,13 12.002,10 24,10 24.363,6 7.607,6 8,10 8.619,17 19.503,17 19.148,20.984 16,21.99 12.857,20.984 12.648,19 8.803,19 "
       id="polygon4758"
       style="fill:#ffffff" /></g><g
     id="g4762" /><g
     id="g4764" /><g
     id="g4766" /><g
     id="g4768" /><g
     id="g4770" /><g
     id="g4772" /></svg>