<?xml version="1.0" encoding="UTF-8" standalone="no"?>
<svg
   xmlns:dc="http://purl.org/dc/elements/1.1/"
   xmlns:cc="http://creativecommons.org/ns#"
   xmlns:rdf="http://www.w3.org/1999/02/22-rdf-syntax-ns#"
   xmlns:svg="http://www.w3.org/2000/svg"
   xmlns="http://www.w3.org/2000/svg"
   xmlns:sodipodi="http://sodipodi.sourceforge.net/DTD/sodipodi-0.dtd"
   xmlns:inkscape="http://www.inkscape.org/namespaces/inkscape"
   version="1.1"
   id="Layer_2"
   x="0px"
   y="0px"
   width="600px"
   height="600px"
   viewBox="0 0 600 600"
   enable-background="new 0 0 600 600"
   xml:space="preserve"
   sodipodi:docname="react.svg"
   inkscape:version="0.92.0 unknown"><metadata
     id="metadata6686"><rdf:RDF><cc:Work
         rdf:about=""><dc:format>image/svg+xml</dc:format><dc:type
           rdf:resource="http://purl.org/dc/dcmitype/StillImage" /><dc:title></dc:title></cc:Work></rdf:RDF></metadata><defs
     id="defs6684" /><sodipodi:namedview
     pagecolor="#ffffff"
     bordercolor="#666666"
     borderopacity="1"
     objecttolerance="10"
     gridtolerance="10"
     guidetolerance="10"
     inkscape:pageopacity="0"
     inkscape:pageshadow="2"
     inkscape:window-width="1865"
     inkscape:window-height="1056"
     id="namedview6682"
     showgrid="false"
     inkscape:zoom="0.39333333"
     inkscape:cx="-212.30428"
     inkscape:cy="77.467989"
     inkscape:window-x="55"
     inkscape:window-y="24"
     inkscape:window-maximized="1"
     inkscape:current-layer="layer3" /><g
     inkscape:groupmode="layer"
     id="layer3"
     inkscape:label="Layer 1"><path
       style="fill:#37474f;fill-opacity:1;stroke:none;stroke-width:6.03120565;stroke-opacity:0"
       id="path4587-3-6"
       sodipodi:type="arc"
       sodipodi:cx="302.54239"
       sodipodi:cy="300.00006"
       sodipodi:rx="296.46179"
       sodipodi:ry="294.2926"
       sodipodi:start="0"
       sodipodi:end="6.2715963"
       sodipodi:open="true"
       d="M 599.00418,300.00006 A 296.46179,294.2926 0 0 1 303.40131,594.29143 296.46179,294.2926 0 0 1 6.085574,301.70533 296.46179,294.2926 0 0 1 299.96565,5.7185748 296.46179,294.2926 0 0 1 598.98427,296.58958" /><path
       style="fill:#e3ea23;fill-opacity:1;stroke:none;stroke-width:5.29027081;stroke-opacity:0"
       id="path4587-3"
       sodipodi:type="arc"
       sodipodi:cx="303.79449"
       sodipodi:cy="300.00006"
       sodipodi:rx="260.04144"
       sodipodi:ry="258.1387"
       sodipodi:start="0"
       sodipodi:end="6.2715963"
       sodipodi:open="true"
       d="M 563.83594,300.00006 A 260.04144,258.1387 0 0 1 304.5479,558.13768 260.04144,258.1387 0 0 1 43.757417,301.49584 260.04144,258.1387 0 0 1 301.53431,41.871109 260.04144,258.1387 0 0 1 563.81848,297.00856" /><circle
       style="fill:#00d8ff;stroke-width:0.52704495"
       cx="299.52899"
       cy="299.84702"
       r="26.440264"
       id="circle6673" /><path
       style="fill:none;stroke:#00d8ff;stroke-width:12.64907837;stroke-miterlimit:10"
       stroke-miterlimit="10"
       d="m 299.529,246.08844 c 35.49964,0 68.4779,5.09388 93.34335,13.65415 29.95934,10.31374 48.37956,25.948 48.37956,40.10443 0,14.75251 -19.52227,31.36076 -51.69414,42.02024 -24.32366,8.05905 -56.33005,12.26539 -90.02877,12.26539 -34.5499,0 -67.26674,-3.94862 -91.85866,-12.35446 -31.1199,-10.63682 -49.86425,-27.46062 -49.86425,-41.93117 0,-14.04153 17.58749,-29.55457 47.12572,-39.85303 24.95822,-8.70099 58.75075,-13.90555 94.59719,-13.90555 z"
       id="path6675"
       inkscape:connector-curvature="0" /><path
       style="fill:none;stroke:#00d8ff;stroke-width:12.64907837;stroke-miterlimit:10"
       stroke-miterlimit="10"
       d="m 252.7311,273.12268 c 17.73453,-30.75202 38.62238,-56.77539 58.45983,-74.03927 23.90148,-20.80036 46.64716,-28.94689 58.91044,-21.87501 12.77978,7.36968 17.41462,32.57877 10.57622,65.77311 -5.17032,25.09683 -17.51582,54.9244 -34.35069,84.1169 -17.26019,29.92983 -37.02491,56.29841 -56.59251,73.4026 -24.76109,21.64468 -48.69895,29.4771 -61.23471,22.24815 -12.16367,-7.01497 -16.8159,-29.99992 -10.98045,-60.73297 4.9305,-25.96751 17.30394,-57.84055 35.21187,-88.89351 z"
       id="path6677"
       inkscape:connector-curvature="0" /><path
       style="fill:none;stroke:#00d8ff;stroke-width:12.64907837;stroke-miterlimit:10"
       stroke-miterlimit="10"
       d="m 252.7759,327.17641 c -17.78566,-30.72251 -29.89979,-61.81552 -34.94941,-87.62386 -6.08421,-31.09512 -1.78246,-54.87012 10.46923,-61.96257 12.76713,-7.39127 36.92213,1.18269 62.26508,23.68541 19.16125,17.01301 38.83689,42.60472 55.72077,71.76929 17.31027,29.90084 30.28453,60.19327 35.33099,85.68802 6.3862,32.262 1.21695,56.91242 -11.30669,64.16245 -12.15208,7.035 -34.38916,-0.4132 -58.10092,-20.81775 -20.03455,-17.24017 -41.46894,-43.87807 -59.42905,-74.90099 z"
       id="path6679"
       inkscape:connector-curvature="0" /></g></svg>