<?xml version="1.0" encoding="UTF-8" standalone="no"?>
<svg
   xmlns:dc="http://purl.org/dc/elements/1.1/"
   xmlns:cc="http://creativecommons.org/ns#"
   xmlns:rdf="http://www.w3.org/1999/02/22-rdf-syntax-ns#"
   xmlns:svg="http://www.w3.org/2000/svg"
   xmlns="http://www.w3.org/2000/svg"
   xmlns:sodipodi="http://sodipodi.sourceforge.net/DTD/sodipodi-0.dtd"
   xmlns:inkscape="http://www.inkscape.org/namespaces/inkscape"
   width="592.16522"
   height="592.16534"
   viewBox="0 0 592.16522 592.16534"
   version="1.1"
   id="svg4529"
   sodipodi:docname="sass.svg"
   inkscape:version="0.92.0 unknown">
  <metadata
     id="metadata4535">
    <rdf:RDF>
      <cc:Work
         rdf:about="">
        <dc:format>image/svg+xml</dc:format>
        <dc:type
           rdf:resource="http://purl.org/dc/dcmitype/StillImage" />
        <dc:title></dc:title>
      </cc:Work>
    </rdf:RDF>
  </metadata>
  <defs
     id="defs4533" />
  <sodipodi:namedview
     pagecolor="#ffffff"
     bordercolor="#666666"
     borderopacity="1"
     objecttolerance="10"
     gridtolerance="10"
     guidetolerance="10"
     inkscape:pageopacity="0"
     inkscape:pageshadow="2"
     inkscape:window-width="1865"
     inkscape:window-height="1056"
     id="namedview4531"
     showgrid="false"
     fit-margin-top="0"
     fit-margin-left="0"
     fit-margin-right="0"
     fit-margin-bottom="0"
     inkscape:zoom="1.1705729"
     inkscape:cx="214.79272"
     inkscape:cy="317.4159"
     inkscape:window-x="55"
     inkscape:window-y="24"
     inkscape:window-maximized="1"
     inkscape:current-layer="svg4529" />
  <path
     style="fill:#e9eae9;fill-opacity:1;stroke:#474b6e;stroke-width:19.91682625;stroke-miterlimit:4;stroke-dasharray:none;stroke-opacity:1"
     id="path4537"
     sodipodi:type="arc"
     sodipodi:cx="296.08264"
     sodipodi:cy="296.08276"
     sodipodi:rx="283.20282"
     sodipodi:ry="283.20282"
     sodipodi:start="0"
     sodipodi:end="6.2715963"
     sodipodi:open="true"
     d="M 579.28546,296.08276 A 283.20282,283.20282 0 0 1 296.90315,579.28439 283.20282,283.20282 0 0 1 12.884576,297.72377 283.20282,283.20282 0 0 1 293.62114,12.890641 283.20282,283.20282 0 0 1 579.26644,292.8008" />
  <path
     d="m 471.9246,304.61419 c -14.93595,0.0834 -27.86932,3.6714 -38.71666,9.01164 -4.00517,-7.9269 -8.01035,-14.85252 -8.67787,-20.02586 -0.75097,-6.00776 -1.66882,-9.67917 -0.75097,-16.8551 0.91785,-7.17593 5.0899,-17.35575 5.0899,-18.19015 -0.0835,-0.75098 -0.91785,-4.42238 -9.51228,-4.50582 -8.59443,-0.0834 -16.02069,1.66882 -16.85509,3.92173 -0.83442,2.25291 -2.50324,7.42625 -3.58797,12.76649 -1.50194,7.84346 -17.18887,35.62933 -26.11706,50.23152 -2.92044,-5.674 -5.42367,-10.68046 -5.92432,-14.68563 -0.75096,-6.00776 -1.66882,-9.67916 -0.75096,-16.8551 0.91785,-7.17593 5.0899,-17.35574 5.0899,-18.19015 -0.0835,-0.75097 -0.91785,-4.42238 -9.51229,-4.50581 -8.59442,-0.0835 -16.02068,1.66881 -16.85509,3.92173 -0.83441,2.2529 -1.75226,7.59313 -3.58797,12.76648 -1.75226,5.17335 -22.61252,51.56658 -28.0362,63.66554 -2.75355,6.17463 -5.17334,11.09766 -6.92561,14.4353 -1.75226,3.33764 -0.0835,0.25032 -0.25032,0.58409 -1.50194,2.837 -2.33635,4.42238 -2.33635,4.42238 v 0.0835 c -1.16817,2.08603 -2.41979,4.08861 -3.00388,4.08861 -0.41721,0 -1.25161,-5.59055 0.16688,-13.26713 3.08732,-16.10413 10.59702,-41.21989 10.51358,-42.13775 0,-0.4172 1.4185,-4.83958 -4.83958,-7.09248 -6.0912,-2.25291 -8.26067,1.50194 -8.76132,1.50194 -0.50065,0 -0.91785,1.33505 -0.91785,1.33505 0,0 6.75873,-28.28653 -12.93336,-28.28653 -12.34928,0 -29.37126,13.43402 -37.79881,25.69986 -5.34023,2.92043 -16.68822,9.09508 -28.70373,15.68692 -4.58926,2.50324 -9.3454,5.17334 -13.85122,7.59313 l -0.91785,-1.00129 c -23.86415,-25.44953 -68.00448,-43.4728 -66.16878,-77.68363 0.66754,-12.43272 5.00647,-45.22507 84.77613,-84.94302 65.33437,-32.54203 117.65192,-23.61384 126.747,-3.75486 12.93337,28.36997 -27.95276,81.10473 -95.87379,88.69787 -25.86674,2.92043 -39.46763,-7.0925 -42.88872,-10.84734 -3.58796,-3.92174 -4.08861,-4.08862 -5.42367,-3.33765 -2.16946,1.16818 -0.83441,4.6727 0,6.75873 2.00259,5.25678 10.3467,14.60219 24.53168,19.27489 12.43272,4.08861 42.80528,6.34152 79.51934,-7.84346 41.13646,-15.93725 73.26126,-60.16102 63.83242,-97.12542 -9.59571,-37.63193 -72.00965,-49.9812 -131.00249,-29.03749 -35.12868,12.51616 -73.17781,32.04137 -100.54648,57.65778 -32.54204,30.37255 -37.71538,56.90682 -35.54592,67.92104 7.59315,39.30074 61.74641,64.91715 83.44109,83.85828 -1.08473,0.58409 -2.08603,1.16818 -3.00388,1.66882 -10.84733,5.34023 -52.15067,26.95147 -62.49736,49.81432 -11.68176,25.86674 1.8357,44.47409 10.84733,46.97733 27.86932,7.76002 56.40617,-6.17464 71.84277,-29.12093 15.35316,-22.94631 13.51745,-52.73477 6.42497,-66.33566 l -0.25033,-0.50065 8.51099,-5.00646 c 5.50711,-3.2542 10.93078,-6.25808 15.68693,-8.84476 -2.67012,7.25937 -4.58927,15.85381 -5.59056,28.36997 -1.16818,14.68563 4.83958,33.7102 12.76648,41.21989 3.50453,3.2542 7.67658,3.33764 10.26326,3.33764 9.17851,0 13.35057,-7.59314 17.93983,-16.68822 5.67399,-11.09765 10.68045,-23.94758 10.68045,-23.94758 0,0 -6.25807,34.79493 10.84735,34.79493 6.25807,0 12.51616,-8.09378 15.35315,-12.26584 v 0.0834 c 0,0 0.16689,-0.25032 0.50065,-0.83441 0.66753,-1.00129 1.00129,-1.58538 1.00129,-1.58538 v -0.16688 c 2.50324,-4.33894 8.09379,-14.26842 16.43789,-30.70632 10.76391,-21.19403 21.1106,-47.7283 21.1106,-47.7283 0,0 1.00129,6.50841 4.08861,17.18887 1.8357,6.34152 5.84087,13.26713 8.9282,20.02586 -2.50324,3.50452 -4.00518,5.50711 -4.00518,5.50711 l 0.0835,0.0834 c -2.00259,2.67011 -4.2555,5.50711 -6.59185,8.34411 -8.51099,10.17981 -18.6908,21.77811 -20.02586,25.11576 -1.58538,3.92173 -1.25162,6.84217 1.8357,9.17852 2.25292,1.66882 6.25809,2.00258 10.51358,1.66882 7.67658,-0.50065 13.01681,-2.41979 15.68692,-3.58797 4.17206,-1.50194 8.9282,-3.75484 13.51746,-7.09249 8.3441,-6.17463 13.43401,-14.93595 12.93336,-26.6177 -0.25032,-6.42497 -2.33634,-12.76649 -4.92302,-18.77424 0.75097,-1.08474 1.50194,-2.16948 2.25291,-3.33764 13.18369,-19.2749 23.3635,-40.46893 23.3635,-40.46893 0,0 1.0013,6.50841 4.08861,17.18886 1.58538,5.42368 4.75615,11.34799 7.59314,17.18887 -12.34928,10.09637 -20.1093,21.77811 -22.77941,29.45469 -4.92302,14.18499 -1.08474,20.60995 6.17463,22.11189 3.25421,0.66752 7.92691,-0.83442 11.43144,-2.33635 4.33893,-1.4185 9.59571,-3.83829 14.4353,-7.42626 8.34411,-6.17463 16.35445,-14.76907 15.93725,-26.36738 -0.25033,-5.34022 -1.66883,-10.59702 -3.58797,-15.60348 10.51358,-4.33893 24.11447,-6.84217 41.38677,-4.75614 37.13128,4.33894 44.4741,27.53556 43.0556,37.21472 -1.4185,9.67917 -9.17852,15.01939 -11.76519,16.68822 -2.58667,1.58538 -3.42109,2.16947 -3.17076,3.33764 0.33376,1.75226 1.50194,1.66882 3.75484,1.33506 3.08732,-0.50065 19.52521,-7.9269 20.19274,-25.7833 1.0013,-22.94629 -20.77682,-47.97862 -59.41004,-47.72829 z m -286.36977,96.54133 c -12.26584,13.43401 -29.53814,18.52391 -36.88095,14.18498 -7.92691,-4.58927 -4.83959,-24.3648 10.26324,-38.63323 9.17852,-8.67786 21.1106,-16.6882 28.95406,-21.61123 1.75226,-1.08473 4.42237,-2.67011 7.59314,-4.58926 0.50064,-0.33376 0.8344,-0.50064 0.8344,-0.50064 0.58409,-0.33377 1.25162,-0.75098 1.91915,-1.16818 5.59055,20.35963 0.25032,38.21601 -12.68304,52.31756 z m 89.69915,-60.99543 c -4.25549,10.43014 -13.26713,37.21472 -18.6908,35.71278 -4.6727,-1.25161 -7.50969,-21.5278 -0.91785,-41.55366 3.33764,-10.09637 10.43014,-22.11188 14.60219,-26.78458 6.75873,-7.5097 14.10154,-10.01293 15.93724,-6.92561 2.16947,4.00517 -8.26066,33.04267 -10.93078,39.55107 z m 74.01224,35.37902 c -1.83571,0.91785 -3.50453,1.58538 -4.2555,1.08473 -0.58408,-0.33377 0.75097,-1.58538 0.75097,-1.58538 0,0 9.26196,-9.92949 12.93337,-14.51875 2.08602,-2.67012 4.58926,-5.75744 7.25937,-9.26196 v 1.00129 c 0,12.01552 -11.51486,20.02586 -16.68821,23.28007 z m 57.07369,-13.01681 c -1.33505,-1.0013 -1.16818,-4.08862 3.33764,-13.76779 1.75227,-3.83828 5.75744,-10.26324 12.68305,-16.35444 0.83441,2.50323 1.33505,4.92302 1.25161,7.17593 -0.0835,15.0194 -10.76389,20.60995 -17.2723,22.9463 z"
     id="path4527"
     inkscape:connector-curvature="0"
     style="fill:#cf649a;stroke-width:0.83441073" />
</svg>
